<svg id="Layer_1" data-name="Layer 1" xmlns="http://www.w3.org/2000/svg" viewBox="0 0 151 110"><defs><style>.cls-1{fill:#76c48d;}</style></defs><circle class="cls-1" cx="22.2" cy="87.77" r="22.2"/><path class="cls-1" d="M44.44,24.76q5.3-.33,7.22-3.61l7.46-14.1q4.56-7,14.19-7h52q7.45.17,7.46,4.26A7.18,7.18,0,0,1,132,7.05l-7.7,14.1a3,3,0,0,0-.48,1.48c0,1.31,1.28,2,3.85,2.13H143.3q7.45.33,7.46,4.26a5.15,5.15,0,0,1-1,2.79l-7.46,14.26q-4.58,7.07-14.19,7.06H112.51c-3.52.11-5.85,1.31-7,3.6l-3.85,7.05q-4.57,7.05-14.19,7H45.89c-5-.21-7.46-1.64-7.46-4.26a6.42,6.42,0,0,1,.72-2.79l7.7-14.26q1.44-3.45-3.37-3.45h-26c-5-.21-7.46-1.69-7.46-4.42a7.18,7.18,0,0,1,.72-2.79l3.85-7q4.56-7,14.19-7Z"/><path d="M28.18,93.08h7v2.61h-7v6.85H25V95.69H18V93.08h7V86.76h3.2Z"/></svg>