<svg id="Layer_1" data-name="Layer 1" xmlns="http://www.w3.org/2000/svg" viewBox="0 0 50 50"><defs><style>.cls-1{fill:#76c48d;}</style></defs><polygon class="cls-1" points="16.02 18.39 25.11 30.32 33.98 18.67 35.96 21.28 25.11 35.53 14.04 21 16.02 18.39"/><path class="cls-1" d="M49.51,25A24.51,24.51,0,1,1,25,.49,24.54,24.54,0,0,1,49.51,25Zm-48,0A23.45,23.45,0,1,0,25,1.55,23.48,23.48,0,0,0,1.55,25Z"/><path class="cls-1" d="M0,25A25,25,0,1,1,25,50,25,25,0,0,1,0,25Zm49,0A24,24,0,1,0,25,49,24.05,24.05,0,0,0,49,25Zm-48,0A23.94,23.94,0,1,1,25,48.94,24,24,0,0,1,1.06,25ZM48,25A23,23,0,1,0,25,48,23,23,0,0,0,48,25Z"/></svg>