<svg id="Layer_1" data-name="Layer 1" xmlns="http://www.w3.org/2000/svg" viewBox="0 0 200 200"><defs><style>.cls-1{fill:#76c48d;}</style></defs><path class="cls-1" d="M175.32,0H24.68A24.74,24.74,0,0,0,0,24.68V175.32A24.74,24.74,0,0,0,24.68,200H99.57c0-.07,0-.14,0-.21V129.71h-17A2.5,2.5,0,0,1,80,127.2V101.73a2.5,2.5,0,0,1,2.5-2.5H100.4V80.32c-.36-2-1.85-13.86,8.87-23.73C119,47.69,131.2,47,134.72,47c.47,0,.79,0,.93,0H156a2.5,2.5,0,0,1,2.51,2.5V73.2A2.51,2.51,0,0,1,156,75.71H141.23c-5.18,0-7.81,2.47-7.81,7.35V99.23H156a2.51,2.51,0,0,1,2.49,2.79l-3,25.8A2.52,2.52,0,0,1,153,130H133.42v69.75a1.49,1.49,0,0,1,0,.21h41.92A24.74,24.74,0,0,0,200,175.32V24.68A24.74,24.74,0,0,0,175.32,0Z"/></svg>