<svg id="Layer_1" data-name="Layer 1" xmlns="http://www.w3.org/2000/svg" viewBox="0 0 44 47"><defs><style>.cls-1{fill:#76c48d;}.cls-2{opacity:0.5;}.cls-3{opacity:0.47;}</style></defs><path class="cls-1" d="M37.92,36.92h2.13c.17-.26.34-.52.5-.79H37.92V30h5.15a22.28,22.28,0,0,0,.55-3.76h-5.9V17.73h4.7a20.74,20.74,0,0,0-1.14-2.65v1.26H36.93v2.77H34.16V16.34h1.38V10.61h2.69a22.45,22.45,0,0,0-2.88-2.72V9.62H29.61v-5c-.71-.26-1.44-.49-2.18-.69V6.05H21.69V3.29H21.3V6.65h3.36V10H21.3V8.43H16.15V4.08a21.38,21.38,0,0,0-2.37.82v5.9H5.67v-.09c-.2.22-.39.45-.58.69H7.65v3.95h-4v-2a22,22,0,0,0-1.91,3.78H5.07v5.74H.43A20.55,20.55,0,0,0,.33,25,22.3,22.3,0,0,0,.54,28H6.66v7.32H9.82V39H7.45v2l.49.43V39.29h5.84V45l.2.08v-.84h6.53v2.32c.16,0,.33,0,.49,0V45h3.27V46.5l1-.13V43.45H30v1.63q.51-.19,1-.42V41.27h5.25a21.54,21.54,0,0,0,1.68-1.63ZM5.67,16h4V19.9h-4Zm5.74,11.47H5.67V21.69h5.74Zm1.18-12.07H8.64V11.4h3.95ZM17,44H14v-3h3Zm6.33-.1H20V40.68h3.27Zm3.95-27.6H21.5V10.61h5.73Z"/><g class="cls-2"><rect class="cls-1" x="15.34" y="2.71" width="4.69" height="4.69"/><rect class="cls-1" x="5.77" y="2.17" width="7.4" height="7.4"/><rect class="cls-1" x="8.48" y="10.11" width="3.61" height="3.61"/><rect class="cls-1" x="3.97" y="10.11" width="3.61" height="3.61"/><rect class="cls-1" x="5.77" y="14.26" width="3.61" height="3.61"/><rect class="cls-1" y="15.34" width="5.23" height="5.23"/><rect class="cls-1" x="5.77" y="19.49" width="5.23" height="5.23"/><rect class="cls-1" y="25.26" width="6.68" height="6.68"/><rect class="cls-1" x="6.23" y="31.94" width="3.34" height="3.34"/><rect class="cls-1" x="4.06" y="35.19" width="3.34" height="3.34"/><rect class="cls-1" x="7.85" y="35.55" width="5.32" height="5.32"/><rect class="cls-1" x="13.35" y="37.17" width="2.71" height="2.71"/><rect class="cls-1" x="13.35" y="40.06" width="5.95" height="5.95"/><rect class="cls-1" x="18.86" y="36.81" width="2.98" height="2.98"/><rect class="cls-1" x="19.76" y="40.78" width="2.98" height="2.98"/><rect class="cls-1" x="23.64" y="39.34" width="4.33" height="4.33"/><rect class="cls-1" x="20.03" y="5.77" width="3.07" height="3.07"/><rect class="cls-1" x="20.39" width="5.23" height="5.23"/><rect class="cls-1" x="20.21" y="9.38" width="5.23" height="5.23"/><rect class="cls-1" x="33.02" y="9.38" width="5.23" height="5.23"/><rect class="cls-1" x="27.61" y="3.25" width="5.23" height="5.23"/><rect class="cls-1" x="31.76" y="14.62" width="2.53" height="2.53"/><rect class="cls-1" x="35.01" y="15.88" width="7.76" height="7.76"/><rect class="cls-1" x="35.19" y="27.07" width="5.59" height="5.59"/><rect class="cls-1" x="35.19" y="33.38" width="3.97" height="3.97"/><rect class="cls-1" x="28.87" y="37.35" width="5.41" height="5.41"/><path class="cls-1" d="M5.81,36.57h.68V33.32H3.58A19.69,19.69,0,0,0,5.81,36.57Z"/><path class="cls-1" d="M6.45,35.19h.68V31.94H4.22A19.5,19.5,0,0,0,6.45,35.19Z"/></g><g class="cls-3"><rect class="cls-1" x="16.34" y="3.71" width="4.69" height="4.69"/><rect class="cls-1" x="6.77" y="3.17" width="7.4" height="7.4"/><rect class="cls-1" x="9.48" y="11.11" width="3.61" height="3.61"/><rect class="cls-1" x="4.97" y="11.11" width="3.61" height="3.61"/><rect class="cls-1" x="6.77" y="15.26" width="3.61" height="3.61"/><rect class="cls-1" x="1" y="16.34" width="5.23" height="5.23"/><rect class="cls-1" x="6.77" y="20.49" width="5.23" height="5.23"/><rect class="cls-1" x="1" y="26.26" width="6.68" height="6.68"/><rect class="cls-1" x="7.23" y="32.94" width="3.34" height="3.34"/><rect class="cls-1" x="5.06" y="36.19" width="3.34" height="3.34"/><rect class="cls-1" x="8.85" y="36.55" width="5.32" height="5.32"/><rect class="cls-1" x="14.35" y="38.17" width="2.71" height="2.71"/><rect class="cls-1" x="14.35" y="41.06" width="5.95" height="5.95"/><rect class="cls-1" x="19.86" y="37.81" width="2.98" height="2.98"/><rect class="cls-1" x="20.76" y="41.78" width="2.98" height="2.98"/><rect class="cls-1" x="24.64" y="40.34" width="4.33" height="4.33"/><rect class="cls-1" x="21.03" y="6.77" width="3.07" height="3.07"/><rect class="cls-1" x="21.39" y="1" width="5.23" height="5.23"/><rect class="cls-1" x="21.21" y="10.38" width="5.23" height="5.23"/><rect class="cls-1" x="34.02" y="10.38" width="5.23" height="5.23"/><rect class="cls-1" x="28.61" y="4.25" width="5.23" height="5.23"/><rect class="cls-1" x="32.76" y="15.62" width="2.53" height="2.53"/><rect class="cls-1" x="36.01" y="16.88" width="7.76" height="7.76"/><rect class="cls-1" x="36.19" y="28.07" width="5.59" height="5.59"/><rect class="cls-1" x="36.19" y="34.38" width="3.97" height="3.97"/><rect class="cls-1" x="29.87" y="38.35" width="5.41" height="5.41"/><path class="cls-1" d="M6.81,37.57h.68V34.32H4.58A19.69,19.69,0,0,0,6.81,37.57Z"/><path class="cls-1" d="M7.45,36.19h.68V32.94H5.22A19.5,19.5,0,0,0,7.45,36.19Z"/></g></svg>