<svg id="Layer_1" data-name="Layer 1" xmlns="http://www.w3.org/2000/svg" viewBox="0 0 200 200"><path d="M175.32,0H24.68A24.74,24.74,0,0,0,0,24.68V175.32A24.74,24.74,0,0,0,24.68,200H175.32A24.74,24.74,0,0,0,200,175.32V24.68A24.74,24.74,0,0,0,175.32,0Zm-21.9,61.81-16.84,79.33c-1.17,5.65-4.57,7-9.3,4.38l-25.64-18.94-12.33,12c-1.44,1.39-2.57,2.56-5.13,2.56L85.93,115h0L133.5,72c2.09-1.85-.45-2.76-3.22-1.07L71.55,108l-25.38-7.92c-5.47-1.68-5.51-5.44,1.24-8.15l98.86-38.12C150.78,51.78,155.14,54.9,153.42,61.81Z"/></svg>