<svg id="Layer_1" data-name="Layer 1" xmlns="http://www.w3.org/2000/svg" viewBox="0 0 1333 46"><defs><style>.cls-1{opacity:0.1;}.cls-2{fill:#76c48d;}</style></defs><g class="cls-1"><path class="cls-2" d="M69.27.15V7.4h-.85q-6,.09-9.6,3.1a12.61,12.61,0,0,0-4.37,8.37,12,12,0,0,1,8.92-3.59,11.29,11.29,0,0,1,9.19,4.14Q76,23.56,76,30.31a16.32,16.32,0,0,1-1.87,7.83,13.41,13.41,0,0,1-5.3,5.44,15.35,15.35,0,0,1-7.74,2,14.36,14.36,0,0,1-11.31-4.87c-2.87-3.24-4.31-7.58-4.31-13V24.5a28.42,28.42,0,0,1,2.73-12.74A19.94,19.94,0,0,1,56,3.21,22.91,22.91,0,0,1,67.81.15ZM60.69,22.37a7,7,0,0,0-3.87,1.11,6.75,6.75,0,0,0-2.55,2.93v2.67A11.88,11.88,0,0,0,56,36a5.59,5.59,0,0,0,4.87,2.48,5.52,5.52,0,0,0,4.58-2.23,9.1,9.1,0,0,0,1.75-5.79,9.12,9.12,0,0,0-1.76-5.83A5.76,5.76,0,0,0,60.69,22.37Z"/><path class="cls-2" d="M105,.15V7.4h-.86a15,15,0,0,0-9.6,3.1,12.65,12.65,0,0,0-4.37,8.37,12,12,0,0,1,8.92-3.59,11.27,11.27,0,0,1,9.19,4.14q3.42,4.14,3.41,10.89a16.32,16.32,0,0,1-1.87,7.83,13.35,13.35,0,0,1-5.3,5.44,15.35,15.35,0,0,1-7.74,2,14.36,14.36,0,0,1-11.31-4.87c-2.87-3.24-4.31-7.58-4.31-13V24.5a28.42,28.42,0,0,1,2.73-12.74,19.94,19.94,0,0,1,7.82-8.55A22.92,22.92,0,0,1,103.58.15ZM96.45,22.37a7,7,0,0,0-3.86,1.11A6.71,6.71,0,0,0,90,26.41v2.67A11.8,11.8,0,0,0,91.77,36a5.92,5.92,0,0,0,9.45.25A9.16,9.16,0,0,0,103,30.42a9.07,9.07,0,0,0-1.77-5.83A5.76,5.76,0,0,0,96.45,22.37Z"/><path class="cls-2" d="M118.25,23.13,120.8.61h24.84V7.94H128l-1.1,9.53a13.9,13.9,0,0,1,6.67-1.67q6.33,0,9.92,3.92t3.59,11a16.08,16.08,0,0,1-1.81,7.69,12.83,12.83,0,0,1-5.19,5.26,16.18,16.18,0,0,1-8,1.87,17.13,17.13,0,0,1-7.45-1.63,13.15,13.15,0,0,1-5.44-4.58,12.52,12.52,0,0,1-2.11-6.72h8.7a6.51,6.51,0,0,0,1.94,4.3,6.09,6.09,0,0,0,4.33,1.54,5.4,5.4,0,0,0,4.6-2.15,9.9,9.9,0,0,0,1.61-6.07,8.26,8.26,0,0,0-1.85-5.78,6.83,6.83,0,0,0-5.27-2,7.59,7.59,0,0,0-5.08,1.65l-.85.79Z"/><path class="cls-2" d="M161.65,18.87h4.69a6.63,6.63,0,0,0,5-1.67,6.17,6.17,0,0,0,1.61-4.45,5.43,5.43,0,0,0-1.6-4.17,6.2,6.2,0,0,0-4.4-1.49,6.47,6.47,0,0,0-4.23,1.39,4.43,4.43,0,0,0-1.7,3.6h-8.8a10.88,10.88,0,0,1,1.87-6.22,12.53,12.53,0,0,1,5.24-4.31A17.53,17.53,0,0,1,166.7,0q7,0,11,3.36a11.48,11.48,0,0,1,4,9.27,9.3,9.3,0,0,1-1.86,5.6A12.09,12.09,0,0,1,175,22.16a11,11,0,0,1,5.58,4,10.91,10.91,0,0,1,1.85,6.34A11.66,11.66,0,0,1,178.1,42q-4.31,3.57-11.4,3.56A16.39,16.39,0,0,1,155.85,42a11.43,11.43,0,0,1-4.22-9.25h8.8a5.1,5.1,0,0,0,1.87,4.08,7.82,7.82,0,0,0,9.53-.08,5.71,5.71,0,0,0,1.78-4.4q0-6.63-7.31-6.63h-4.65Z"/></g><g class="cls-1"><path class="cls-2" d="M338.11,44.92H307.74v-6l14.33-15.28A35.18,35.18,0,0,0,326.44,18a9,9,0,0,0,1.42-4.57,6.79,6.79,0,0,0-1.49-4.64,5.39,5.39,0,0,0-4.26-1.69,5.83,5.83,0,0,0-4.71,2.06,8.17,8.17,0,0,0-1.72,5.4h-8.82a14.52,14.52,0,0,1,1.93-7.4,13.67,13.67,0,0,1,5.46-5.25,16.6,16.6,0,0,1,8-1.9q6.84,0,10.64,3.29t3.78,9.28a14.89,14.89,0,0,1-1.7,6.7,37.26,37.26,0,0,1-5.84,7.94L319.06,37.83h19.05Z"/><path class="cls-2" d="M369.53,28.25h5v7.09h-5v9.58h-8.8V35.34H342.56l-.4-5.54L360.64.61h8.89Zm-18.6,0h9.8V12.6l-.58,1Z"/><path class="cls-2" d="M400.63,44.92h-8.79V11l-10.51,3.25V7.12L399.69.55h.94Z"/><path class="cls-2" d="M441.05,28.25h5v7.09h-5v9.58h-8.8V35.34H414.08l-.39-5.54L432.16.61h8.89Zm-18.6,0h9.8V12.6l-.57,1Z"/></g><g class="cls-1"><path class="cls-2" d="M594.38,23.13,596.93.61h24.84V7.94H604.15l-1.1,9.53a13.9,13.9,0,0,1,6.67-1.67q6.33,0,9.92,3.92t3.59,11a16.08,16.08,0,0,1-1.81,7.69,12.83,12.83,0,0,1-5.19,5.26,16.16,16.16,0,0,1-8,1.87,17.14,17.14,0,0,1-7.46-1.63,13.12,13.12,0,0,1-5.43-4.58,12.44,12.44,0,0,1-2.12-6.72H602a6.51,6.51,0,0,0,1.94,4.3,6.09,6.09,0,0,0,4.33,1.54,5.4,5.4,0,0,0,4.6-2.15,9.9,9.9,0,0,0,1.61-6.07,8.26,8.26,0,0,0-1.85-5.78,6.83,6.83,0,0,0-5.27-2,7.59,7.59,0,0,0-5.08,1.65l-.85.79Z"/><path class="cls-2" d="M654.85,28.25h5v7.09h-5v9.58h-8.79V35.34H627.89l-.4-5.54L646,.61h8.88Zm-18.59,0h9.8V12.6l-.58,1Z"/><path class="cls-2" d="M673.54,18.87h4.69a6.63,6.63,0,0,0,5-1.67,6.17,6.17,0,0,0,1.61-4.45,5.43,5.43,0,0,0-1.6-4.17,6.19,6.19,0,0,0-4.39-1.49,6.43,6.43,0,0,0-4.23,1.39,4.41,4.41,0,0,0-1.71,3.6h-8.79A10.8,10.8,0,0,1,666,5.86a12.5,12.5,0,0,1,5.23-4.31A17.53,17.53,0,0,1,678.59,0q7,0,11,3.36a11.48,11.48,0,0,1,4,9.27,9.3,9.3,0,0,1-1.86,5.6,12.09,12.09,0,0,1-4.87,3.93,11,11,0,0,1,5.59,4,11,11,0,0,1,1.84,6.34A11.66,11.66,0,0,1,690,42q-4.31,3.57-11.4,3.56A16.39,16.39,0,0,1,667.74,42a11.42,11.42,0,0,1-4.21-9.25h8.79a5.11,5.11,0,0,0,1.88,4.08,7.8,7.8,0,0,0,9.52-.08,5.71,5.71,0,0,0,1.78-4.4q0-6.63-7.3-6.63h-4.66Z"/><path class="cls-2" d="M709.3,18.87H714a6.62,6.62,0,0,0,5-1.67,6.14,6.14,0,0,0,1.62-4.45A5.46,5.46,0,0,0,719,8.58a6.22,6.22,0,0,0-4.4-1.49,6.45,6.45,0,0,0-4.23,1.39,4.41,4.41,0,0,0-1.71,3.6h-8.79a10.8,10.8,0,0,1,1.87-6.22A12.47,12.47,0,0,1,707,1.55,17.53,17.53,0,0,1,714.36,0c4.68,0,8.36,1.12,11,3.36a11.48,11.48,0,0,1,4,9.27,9.36,9.36,0,0,1-1.85,5.6,12.16,12.16,0,0,1-4.87,3.93,11,11,0,0,1,5.58,4,10.91,10.91,0,0,1,1.84,6.34A11.63,11.63,0,0,1,725.75,42q-4.31,3.57-11.39,3.56-6.65,0-10.85-3.5a11.43,11.43,0,0,1-4.22-9.25h8.8A5.1,5.1,0,0,0,710,36.86a7.82,7.82,0,0,0,9.53-.08,5.74,5.74,0,0,0,1.78-4.4q0-6.63-7.31-6.63H709.3Z"/></g><g class="cls-1"><path class="cls-2" d="M898.77,44.92H868.4v-6l14.33-15.28A35.18,35.18,0,0,0,887.1,18a9.11,9.11,0,0,0,1.41-4.57A6.74,6.74,0,0,0,887,8.78a5.36,5.36,0,0,0-4.26-1.69,5.81,5.81,0,0,0-4.7,2.06,8.12,8.12,0,0,0-1.72,5.4h-8.83a14.52,14.52,0,0,1,1.94-7.4,13.54,13.54,0,0,1,5.46-5.25,16.56,16.56,0,0,1,8-1.9q6.86,0,10.64,3.29t3.79,9.28a15,15,0,0,1-1.7,6.7,37.36,37.36,0,0,1-5.85,7.94L879.72,37.83h19Z"/><path class="cls-2" d="M913.11,18.87h4.68a6.64,6.64,0,0,0,5-1.67,6.17,6.17,0,0,0,1.61-4.45,5.43,5.43,0,0,0-1.6-4.17,6.22,6.22,0,0,0-4.4-1.49,6.47,6.47,0,0,0-4.23,1.39,4.43,4.43,0,0,0-1.7,3.6h-8.8a10.8,10.8,0,0,1,1.87-6.22,12.53,12.53,0,0,1,5.24-4.31A17.53,17.53,0,0,1,918.16,0q7,0,11,3.36a11.47,11.47,0,0,1,4,9.27,9.29,9.29,0,0,1-1.85,5.6,12.09,12.09,0,0,1-4.87,3.93,11,11,0,0,1,5.58,4,10.91,10.91,0,0,1,1.84,6.34,11.66,11.66,0,0,1-4.3,9.46q-4.3,3.57-11.4,3.56A16.39,16.39,0,0,1,907.31,42a11.43,11.43,0,0,1-4.22-9.25h8.8a5.1,5.1,0,0,0,1.87,4.08,7.82,7.82,0,0,0,9.53-.08,5.74,5.74,0,0,0,1.78-4.4q0-6.63-7.31-6.63h-4.65Z"/><path class="cls-2" d="M965.94,28.25h5v7.09h-5v9.58h-8.79V35.34H939l-.4-5.54L957.06.61h8.88Zm-18.59,0h9.8V12.6l-.58,1Z"/><path class="cls-2" d="M997.05,44.92h-8.8V11l-10.5,3.25V7.12L996.11.55h.94Z"/></g><g class="cls-1"><path class="cls-2" d="M1179.36,5.52l-17.14,39.4h-9.28L1170.1,7.7h-22V.61h31.29Z"/><path class="cls-2" d="M1208.85.15V7.4H1208q-6,.09-9.6,3.1a12.57,12.57,0,0,0-4.37,8.37,12,12,0,0,1,8.92-3.59,11.3,11.3,0,0,1,9.19,4.14q3.4,4.14,3.41,10.89a16.33,16.33,0,0,1-1.88,7.83,13.33,13.33,0,0,1-5.29,5.44,15.41,15.41,0,0,1-7.75,2,14.37,14.37,0,0,1-11.31-4.87c-2.87-3.24-4.3-7.58-4.3-13V24.5a28.56,28.56,0,0,1,2.72-12.74,20,20,0,0,1,7.82-8.55A22.92,22.92,0,0,1,1207.39.15Zm-8.58,22.22a7,7,0,0,0-3.87,1.11,6.71,6.71,0,0,0-2.56,2.93v2.67a11.8,11.8,0,0,0,1.74,6.88,5.92,5.92,0,0,0,9.45.25,9.1,9.1,0,0,0,1.75-5.79,9.07,9.07,0,0,0-1.77-5.83A5.74,5.74,0,0,0,1200.27,22.37Z"/><path class="cls-2" d="M1222.06,23.13,1224.62.61h24.83V7.94h-17.62l-1.1,9.53a13.9,13.9,0,0,1,6.67-1.67q6.33,0,9.92,3.92t3.59,11a16.08,16.08,0,0,1-1.81,7.69,12.83,12.83,0,0,1-5.19,5.26,16.16,16.16,0,0,1-8,1.87,17.14,17.14,0,0,1-7.46-1.63,13.19,13.19,0,0,1-5.43-4.58,12.44,12.44,0,0,1-2.12-6.72h8.71a6.46,6.46,0,0,0,1.93,4.3,6.11,6.11,0,0,0,4.34,1.54,5.37,5.37,0,0,0,4.59-2.15,9.9,9.9,0,0,0,1.62-6.07,8.21,8.21,0,0,0-1.86-5.78,6.81,6.81,0,0,0-5.27-2,7.59,7.59,0,0,0-5.08,1.65l-.85.79Z"/><path class="cls-2" d="M1282.54,28.25h5v7.09h-5v9.58h-8.8V35.34h-18.17l-.4-5.54L1273.65.61h8.89Zm-18.6,0h9.8V12.6l-.58,1Z"/></g></svg>