<svg id="Layer_1" data-name="Layer 1" xmlns="http://www.w3.org/2000/svg" viewBox="0 0 1333 46"><defs><style>.cls-1{opacity:0.1;}.cls-2{fill:#76c48d;}</style></defs><g class="cls-1"><path class="cls-2" d="M72.45,28.25h5v7.09h-5v9.58H63.66V35.34H45.49l-.4-5.54L63.57.61h8.88Zm-18.59,0h9.8V12.6l-.58,1Z"/><path class="cls-2" d="M108.22,28.25h5v7.09h-5v9.58h-8.8V35.34H81.25l-.4-5.54L99.33.61h8.89Zm-18.6,0h9.8V12.6l-.58,1Z"/><path class="cls-2" d="M119.27,23.13,121.82.61h24.84V7.94H129l-1.1,9.53a13.9,13.9,0,0,1,6.67-1.67q6.33,0,9.92,3.92t3.59,11a16.08,16.08,0,0,1-1.81,7.69,12.83,12.83,0,0,1-5.19,5.26,16.18,16.18,0,0,1-8,1.87,17.13,17.13,0,0,1-7.45-1.63,13.15,13.15,0,0,1-5.44-4.58,12.52,12.52,0,0,1-2.11-6.72h8.7a6.51,6.51,0,0,0,1.94,4.3,6.09,6.09,0,0,0,4.33,1.54,5.4,5.4,0,0,0,4.6-2.15,9.9,9.9,0,0,0,1.61-6.07,8.26,8.26,0,0,0-1.85-5.78,6.83,6.83,0,0,0-5.27-2,7.59,7.59,0,0,0-5.08,1.65l-.85.79Z"/><path class="cls-2" d="M162.67,18.87h4.68a6.64,6.64,0,0,0,5-1.67,6.17,6.17,0,0,0,1.61-4.45,5.43,5.43,0,0,0-1.6-4.17,6.2,6.2,0,0,0-4.4-1.49,6.47,6.47,0,0,0-4.23,1.39,4.43,4.43,0,0,0-1.7,3.6h-8.8a10.88,10.88,0,0,1,1.87-6.22,12.53,12.53,0,0,1,5.24-4.31A17.53,17.53,0,0,1,167.72,0q7,0,11,3.36a11.48,11.48,0,0,1,4,9.27,9.3,9.3,0,0,1-1.86,5.6A12.09,12.09,0,0,1,176,22.16a11,11,0,0,1,5.58,4,10.91,10.91,0,0,1,1.85,6.34A11.66,11.66,0,0,1,179.12,42q-4.31,3.57-11.4,3.56A16.39,16.39,0,0,1,156.87,42a11.43,11.43,0,0,1-4.22-9.25h8.8a5.1,5.1,0,0,0,1.87,4.08,7.82,7.82,0,0,0,9.53-.08,5.71,5.71,0,0,0,1.78-4.4q0-6.63-7.31-6.63h-4.65Z"/></g><g class="cls-1"><path class="cls-2" d="M330.13,44.92h-8.8V11l-10.5,3.25V7.12L329.18.55h.95Z"/><path class="cls-2" d="M374.9,44.92H344.52v-6l14.34-15.28A35.78,35.78,0,0,0,363.23,18a9.11,9.11,0,0,0,1.41-4.57,6.79,6.79,0,0,0-1.49-4.64,5.39,5.39,0,0,0-4.26-1.69,5.79,5.79,0,0,0-4.7,2.06,8.12,8.12,0,0,0-1.72,5.4h-8.83a14.52,14.52,0,0,1,1.93-7.4A13.63,13.63,0,0,1,351,1.9,16.56,16.56,0,0,1,359,0q6.85,0,10.64,3.29t3.79,9.28a14.91,14.91,0,0,1-1.71,6.7,36.91,36.91,0,0,1-5.84,7.94L355.84,37.83H374.9Z"/><path class="cls-2" d="M389.23,18.87h4.69a6.62,6.62,0,0,0,5-1.67,6.13,6.13,0,0,0,1.61-4.45,5.46,5.46,0,0,0-1.59-4.17,6.22,6.22,0,0,0-4.4-1.49,6.43,6.43,0,0,0-4.23,1.39,4.41,4.41,0,0,0-1.71,3.6h-8.79a10.8,10.8,0,0,1,1.87-6.22,12.5,12.5,0,0,1,5.23-4.31A17.61,17.61,0,0,1,394.29,0c4.68,0,8.36,1.12,11,3.36a11.48,11.48,0,0,1,4,9.27,9.3,9.3,0,0,1-1.86,5.6,12,12,0,0,1-4.87,3.93,11,11,0,0,1,5.59,4A10.91,10.91,0,0,1,410,32.51,11.66,11.66,0,0,1,405.68,42q-4.31,3.57-11.39,3.56-6.65,0-10.85-3.5a11.4,11.4,0,0,1-4.22-9.25H388a5.1,5.1,0,0,0,1.87,4.08,7.8,7.8,0,0,0,9.52-.08,5.71,5.71,0,0,0,1.78-4.4q0-6.63-7.3-6.63h-4.66Z"/><path class="cls-2" d="M439.91.15V7.4h-.85a15,15,0,0,0-9.61,3.1,12.6,12.6,0,0,0-4.36,8.37A12,12,0,0,1,434,15.28a11.31,11.31,0,0,1,9.2,4.14q3.41,4.14,3.41,10.89a16.33,16.33,0,0,1-1.88,7.83,13.33,13.33,0,0,1-5.29,5.44,15.41,15.41,0,0,1-7.75,2,14.37,14.37,0,0,1-11.31-4.87c-2.87-3.24-4.3-7.58-4.3-13V24.5a28.56,28.56,0,0,1,2.72-12.74,20.06,20.06,0,0,1,7.82-8.55A22.92,22.92,0,0,1,438.45.15Zm-8.58,22.22a7,7,0,0,0-3.87,1.11,6.71,6.71,0,0,0-2.56,2.93v2.67A11.8,11.8,0,0,0,426.64,36a5.92,5.92,0,0,0,9.45.25,9.1,9.1,0,0,0,1.75-5.79,9.07,9.07,0,0,0-1.77-5.83A5.74,5.74,0,0,0,431.33,22.37Z"/></g><g class="cls-1"><path class="cls-2" d="M623,12.39a10.34,10.34,0,0,1-1.61,5.72,11.73,11.73,0,0,1-4.45,4A12.82,12.82,0,0,1,622,26.37a11,11,0,0,1,1.89,6.41,11.61,11.61,0,0,1-4,9.33q-4,3.42-10.93,3.42t-11-3.44a11.56,11.56,0,0,1-4-9.31,11,11,0,0,1,1.88-6.42,12.59,12.59,0,0,1,5.09-4.26,11.52,11.52,0,0,1-4.43-4,10.33,10.33,0,0,1-1.6-5.72,11.52,11.52,0,0,1,3.77-9Q602.46,0,608.94,0t10.24,3.33A11.43,11.43,0,0,1,623,12.39Zm-7.88,19.75a6.38,6.38,0,0,0-1.68-4.63,6.69,6.69,0,0,0-9,0,6.35,6.35,0,0,0-1.68,4.64,6.36,6.36,0,0,0,1.65,4.57,6.87,6.87,0,0,0,9.05.06A6.35,6.35,0,0,0,615.09,32.14Zm-.91-19.33a6.09,6.09,0,0,0-1.37-4.15,5.57,5.57,0,0,0-7.7-.05,6,6,0,0,0-1.37,4.2,6.3,6.3,0,0,0,1.37,4.26,5.4,5.4,0,0,0,7.71,0A6.4,6.4,0,0,0,614.18,12.81Z"/><path class="cls-2" d="M650.43,27.21a11.15,11.15,0,0,1-8,3.38,11.92,11.92,0,0,1-9.41-4q-3.53-4-3.53-10.89a17,17,0,0,1,1.91-8A13.94,13.94,0,0,1,636.67,2a14.72,14.72,0,0,1,7.67-2,14.09,14.09,0,0,1,7.79,2.19,14.44,14.44,0,0,1,5.3,6.3,22.77,22.77,0,0,1,1.91,9.41v3.25q0,11.09-5.51,17.41t-15.61,6.76l-2.16,0V38l2,0Q649.48,37.47,650.43,27.21Zm-5.88-3.35a6.17,6.17,0,0,0,3.67-1.09,7.43,7.43,0,0,0,2.33-2.65V16.5a12,12,0,0,0-1.71-6.94,5.27,5.27,0,0,0-4.56-2.47,5.15,5.15,0,0,0-4.36,2.42,10.33,10.33,0,0,0-1.7,6.07,10,10,0,0,0,1.66,6A5.37,5.37,0,0,0,644.55,23.86Z"/><path class="cls-2" d="M694.5,12.39a10.26,10.26,0,0,1-1.62,5.72,11.62,11.62,0,0,1-4.44,4,12.86,12.86,0,0,1,5.11,4.27,11,11,0,0,1,1.89,6.41,11.61,11.61,0,0,1-4,9.33q-4,3.42-10.92,3.42t-11-3.44a11.57,11.57,0,0,1-4-9.31,11,11,0,0,1,1.89-6.42,12.56,12.56,0,0,1,5.08-4.26,11.59,11.59,0,0,1-4.43-4,10.41,10.41,0,0,1-1.6-5.72,11.49,11.49,0,0,1,3.78-9Q674,0,680.47,0t10.24,3.33A11.46,11.46,0,0,1,694.5,12.39Zm-7.89,19.75a6.37,6.37,0,0,0-1.67-4.63,6.71,6.71,0,0,0-9,0,6.39,6.39,0,0,0-1.67,4.64,6.36,6.36,0,0,0,1.64,4.57,6.89,6.89,0,0,0,9.06.06A6.39,6.39,0,0,0,686.61,32.14Zm-.91-19.33a6.09,6.09,0,0,0-1.37-4.15,4.83,4.83,0,0,0-3.86-1.57,4.91,4.91,0,0,0-3.84,1.52,6.09,6.09,0,0,0-1.37,4.2,6.36,6.36,0,0,0,1.37,4.26,5.41,5.41,0,0,0,7.72,0A6.4,6.4,0,0,0,685.7,12.81Z"/><path class="cls-2" d="M702.68,23.13,705.24.61h24.84V7.94H712.45l-1.09,9.53A13.89,13.89,0,0,1,718,15.8q6.33,0,9.93,3.92t3.59,11a16.2,16.2,0,0,1-1.81,7.69,12.83,12.83,0,0,1-5.19,5.26,16.18,16.18,0,0,1-8,1.87,17.1,17.1,0,0,1-7.45-1.63,13.15,13.15,0,0,1-5.44-4.58,12.43,12.43,0,0,1-2.11-6.72h8.7a6.51,6.51,0,0,0,1.94,4.3,6.09,6.09,0,0,0,4.33,1.54,5.4,5.4,0,0,0,4.6-2.15,10,10,0,0,0,1.61-6.07,8.26,8.26,0,0,0-1.85-5.78,6.83,6.83,0,0,0-5.27-2,7.57,7.57,0,0,0-5.08,1.65l-.86.79Z"/></g><g class="cls-1"><path class="cls-2" d="M890.78,44.92H882V11l-10.5,3.25V7.12L889.84.55h.94Z"/><path class="cls-2" d="M926.54,44.92h-8.79V11l-10.5,3.25V7.12L925.6.55h.94Z"/><path class="cls-2" d="M942.25,23.13,944.81.61h24.83V7.94H952l-1.1,9.53a13.92,13.92,0,0,1,6.67-1.67q6.33,0,9.92,3.92t3.59,11a16.08,16.08,0,0,1-1.81,7.69,12.77,12.77,0,0,1-5.19,5.26,16.16,16.16,0,0,1-8,1.87,17.14,17.14,0,0,1-7.46-1.63,13.19,13.19,0,0,1-5.43-4.58,12.44,12.44,0,0,1-2.12-6.72h8.71a6.46,6.46,0,0,0,1.93,4.3,6.11,6.11,0,0,0,4.34,1.54,5.37,5.37,0,0,0,4.59-2.15,9.9,9.9,0,0,0,1.62-6.07,8.21,8.21,0,0,0-1.86-5.78,6.81,6.81,0,0,0-5.26-2,7.62,7.62,0,0,0-5.09,1.65l-.85.79Z"/><path class="cls-2" d="M978,23.13,980.57.61h24.84V7.94H987.78l-1.09,9.53a13.89,13.89,0,0,1,6.66-1.67q6.33,0,9.92,3.92t3.6,11a16.2,16.2,0,0,1-1.81,7.69,12.83,12.83,0,0,1-5.19,5.26,16.2,16.2,0,0,1-8,1.87,17.17,17.17,0,0,1-7.46-1.63A13.19,13.19,0,0,1,979,39.32a12.43,12.43,0,0,1-2.11-6.72h8.7a6.5,6.5,0,0,0,1.93,4.3,6.13,6.13,0,0,0,4.34,1.54,5.4,5.4,0,0,0,4.6-2.15,10,10,0,0,0,1.61-6.07,8.21,8.21,0,0,0-1.86-5.78,6.79,6.79,0,0,0-5.26-2,7.62,7.62,0,0,0-5.09,1.65l-.85.79Z"/></g><g class="cls-1"><path class="cls-2" d="M1180.62,44.92h-30.37v-6l14.33-15.28A35.78,35.78,0,0,0,1169,18a9.11,9.11,0,0,0,1.41-4.57,6.74,6.74,0,0,0-1.49-4.64,5.36,5.36,0,0,0-4.26-1.69,5.79,5.79,0,0,0-4.7,2.06,8.12,8.12,0,0,0-1.72,5.4h-8.83a14.62,14.62,0,0,1,1.93-7.4,13.63,13.63,0,0,1,5.47-5.25,16.56,16.56,0,0,1,8-1.9q6.85,0,10.64,3.29t3.79,9.28a15,15,0,0,1-1.7,6.7,37.36,37.36,0,0,1-5.85,7.94l-10.07,10.62h19Z"/><path class="cls-2" d="M1216.38,44.92H1186v-6l14.33-15.28a35.18,35.18,0,0,0,4.37-5.63,9.13,9.13,0,0,0,1.42-4.57,6.74,6.74,0,0,0-1.5-4.64,5.36,5.36,0,0,0-4.26-1.69,5.81,5.81,0,0,0-4.7,2.06,8.12,8.12,0,0,0-1.72,5.4h-8.83a14.52,14.52,0,0,1,1.94-7.4,13.67,13.67,0,0,1,5.46-5.25,16.57,16.57,0,0,1,8-1.9q6.84,0,10.63,3.29t3.79,9.28a15,15,0,0,1-1.7,6.7,37.36,37.36,0,0,1-5.85,7.94l-10.07,10.62h19.05Z"/><path class="cls-2" d="M1252.15,44.92h-30.38v-6l14.34-15.28a35.63,35.63,0,0,0,4.36-5.63,9,9,0,0,0,1.42-4.57,6.79,6.79,0,0,0-1.49-4.64,5.39,5.39,0,0,0-4.26-1.69,5.83,5.83,0,0,0-4.71,2.06,8.17,8.17,0,0,0-1.72,5.4h-8.82a14.52,14.52,0,0,1,1.93-7.4,13.67,13.67,0,0,1,5.46-5.25,16.63,16.63,0,0,1,8-1.9q6.84,0,10.64,3.29t3.78,9.28a14.89,14.89,0,0,1-1.7,6.7,37.26,37.26,0,0,1-5.84,7.94l-10.08,10.62h19.06Z"/><path class="cls-2" d="M1287.91,44.92h-30.38v-6l14.34-15.28a35.78,35.78,0,0,0,4.37-5.63,9.11,9.11,0,0,0,1.41-4.57,6.79,6.79,0,0,0-1.49-4.64,5.36,5.36,0,0,0-4.26-1.69,5.79,5.79,0,0,0-4.7,2.06,8.12,8.12,0,0,0-1.72,5.4h-8.83a14.52,14.52,0,0,1,1.93-7.4,13.63,13.63,0,0,1,5.47-5.25,16.56,16.56,0,0,1,8-1.9q6.85,0,10.64,3.29t3.79,9.28a14.91,14.91,0,0,1-1.71,6.7,36.91,36.91,0,0,1-5.84,7.94l-10.07,10.62h19.05Z"/></g></svg>