<svg id="Layer_1" data-name="Layer 1" xmlns="http://www.w3.org/2000/svg" viewBox="0 0 1333 46"><defs><style>.cls-1{opacity:0.1;}.cls-2{fill:#76c48d;}</style></defs><g class="cls-1"><path class="cls-2" d="M74.32,12.39a10.34,10.34,0,0,1-1.61,5.72,11.77,11.77,0,0,1-4.44,4,12.86,12.86,0,0,1,5.11,4.27,11,11,0,0,1,1.89,6.41,11.61,11.61,0,0,1-4,9.33q-4,3.42-10.93,3.42t-11-3.44a11.59,11.59,0,0,1-4-9.31,11,11,0,0,1,1.88-6.42,12.59,12.59,0,0,1,5.09-4.26,11.52,11.52,0,0,1-4.43-4,10.33,10.33,0,0,1-1.6-5.72,11.52,11.52,0,0,1,3.77-9Q53.81,0,60.29,0T70.53,3.33A11.43,11.43,0,0,1,74.32,12.39ZM66.44,32.14a6.41,6.41,0,0,0-1.67-4.63,6,6,0,0,0-4.51-1.73,5.92,5.92,0,0,0-4.47,1.72,6.35,6.35,0,0,0-1.68,4.64,6.36,6.36,0,0,0,1.65,4.57,6,6,0,0,0,4.56,1.73,6,6,0,0,0,4.49-1.67A6.35,6.35,0,0,0,66.44,32.14Zm-.91-19.33a6.09,6.09,0,0,0-1.37-4.15,5.57,5.57,0,0,0-7.7-.05,6,6,0,0,0-1.37,4.2,6.35,6.35,0,0,0,1.37,4.27,5.42,5.42,0,0,0,7.71,0A6.45,6.45,0,0,0,65.53,12.81Z"/><path class="cls-2" d="M101.78,27.21a11.15,11.15,0,0,1-8,3.38,11.88,11.88,0,0,1-9.4-4q-3.54-4-3.53-10.89a16.9,16.9,0,0,1,1.9-8A14,14,0,0,1,88,2a14.82,14.82,0,0,1,7.67-2,14.09,14.09,0,0,1,7.79,2.19,14.44,14.44,0,0,1,5.3,6.3,22.77,22.77,0,0,1,1.91,9.41v3.25q0,11.09-5.51,17.41T89.57,45.32l-2.16,0V38l2,0Q100.84,37.47,101.78,27.21ZM95.9,23.86a6.17,6.17,0,0,0,3.67-1.09,7.43,7.43,0,0,0,2.33-2.65V16.5a12,12,0,0,0-1.71-6.94,5.27,5.27,0,0,0-4.56-2.47,5.15,5.15,0,0,0-4.36,2.42,10.33,10.33,0,0,0-1.7,6.07,10,10,0,0,0,1.66,6A5.37,5.37,0,0,0,95.9,23.86Z"/><path class="cls-2" d="M137.54,27.21a11.11,11.11,0,0,1-8,3.38,11.9,11.9,0,0,1-9.4-4q-3.54-4-3.53-10.89a16.9,16.9,0,0,1,1.9-8A14,14,0,0,1,123.78,2a14.82,14.82,0,0,1,7.67-2,14.09,14.09,0,0,1,7.79,2.19,14.37,14.37,0,0,1,5.3,6.3,22.61,22.61,0,0,1,1.92,9.41v3.25q0,11.09-5.51,17.41t-15.62,6.76l-2.16,0V38l2,0Q136.6,37.47,137.54,27.21Zm-5.88-3.35a6.15,6.15,0,0,0,3.67-1.09,7.34,7.34,0,0,0,2.33-2.65V16.5A12.12,12.12,0,0,0,136,9.56a5.29,5.29,0,0,0-4.57-2.47A5.12,5.12,0,0,0,127,9.51a10.26,10.26,0,0,0-1.71,6.07,10,10,0,0,0,1.66,6A5.4,5.4,0,0,0,131.66,23.86Z"/><path class="cls-2" d="M182.55,26.6q0,9.19-3.8,14.06t-11.14,4.87q-7.25,0-11.08-4.78C154,37.57,152.67,33,152.6,27.06V18.9q0-9.28,3.85-14.09T167.55,0q7.24,0,11.08,4.76t3.92,13.68Zm-8.79-9c0-3.67-.5-6.35-1.51-8a5.08,5.08,0,0,0-4.7-2.52A5,5,0,0,0,163,9.48q-1.49,2.4-1.57,7.48V27.75q0,5.41,1.48,8.06a5,5,0,0,0,4.73,2.63,5,5,0,0,0,4.66-2.53q1.42-2.52,1.49-7.74Z"/></g><g class="cls-1"><path class="cls-2" d="M328.34,27.21a11.11,11.11,0,0,1-8,3.38,11.9,11.9,0,0,1-9.41-4q-3.52-4-3.53-10.89a16.9,16.9,0,0,1,1.9-8A14,14,0,0,1,314.58,2a14.84,14.84,0,0,1,7.67-2,14.13,14.13,0,0,1,7.8,2.19,14.42,14.42,0,0,1,5.29,6.3,22.61,22.61,0,0,1,1.92,9.41v3.25q0,11.09-5.51,17.41t-15.61,6.76l-2.16,0V38l1.94,0Q327.4,37.47,328.34,27.21Zm-5.87-3.35a6.12,6.12,0,0,0,3.66-1.09,7.25,7.25,0,0,0,2.33-2.65V16.5a12.12,12.12,0,0,0-1.7-6.94,5.29,5.29,0,0,0-4.57-2.47,5.15,5.15,0,0,0-4.35,2.42,10.26,10.26,0,0,0-1.7,6.07,10,10,0,0,0,1.65,6A5.4,5.4,0,0,0,322.47,23.86Z"/><path class="cls-2" d="M367.39.15V7.4h-.85q-6,.09-9.6,3.1a12.61,12.61,0,0,0-4.37,8.37,12,12,0,0,1,8.92-3.59,11.29,11.29,0,0,1,9.19,4.14q3.4,4.14,3.41,10.89a16.44,16.44,0,0,1-1.87,7.83,13.41,13.41,0,0,1-5.3,5.44,15.38,15.38,0,0,1-7.75,2,14.35,14.35,0,0,1-11.3-4.87c-2.88-3.24-4.31-7.58-4.31-13V24.5a28.56,28.56,0,0,1,2.72-12.74,20,20,0,0,1,7.83-8.55A22.88,22.88,0,0,1,365.93.15Zm-8.58,22.22a7,7,0,0,0-3.87,1.11,6.69,6.69,0,0,0-2.55,2.93v2.67A11.84,11.84,0,0,0,354.12,36,5.61,5.61,0,0,0,359,38.44a5.54,5.54,0,0,0,4.58-2.23,9.1,9.1,0,0,0,1.75-5.79,9.12,9.12,0,0,0-1.76-5.83A5.76,5.76,0,0,0,358.81,22.37Z"/><path class="cls-2" d="M388.24,18.87h4.69a6.63,6.63,0,0,0,5-1.67,6.17,6.17,0,0,0,1.61-4.45,5.43,5.43,0,0,0-1.6-4.17,6.19,6.19,0,0,0-4.39-1.49,6.48,6.48,0,0,0-4.24,1.39,4.43,4.43,0,0,0-1.7,3.6h-8.8a10.81,10.81,0,0,1,1.88-6.22,12.44,12.44,0,0,1,5.23-4.31A17.53,17.53,0,0,1,393.29,0q7,0,11,3.36a11.48,11.48,0,0,1,4,9.27,9.3,9.3,0,0,1-1.86,5.6,12.09,12.09,0,0,1-4.87,3.93,11,11,0,0,1,5.59,4A10.93,10.93,0,0,1,409,32.51,11.66,11.66,0,0,1,404.69,42q-4.31,3.57-11.4,3.56A16.39,16.39,0,0,1,382.44,42a11.41,11.41,0,0,1-4.21-9.25H387a5.13,5.13,0,0,0,1.87,4.08,7.82,7.82,0,0,0,9.53-.08,5.71,5.71,0,0,0,1.78-4.4q0-6.63-7.3-6.63h-4.66Z"/><path class="cls-2" d="M445.19,5.52l-17.14,39.4h-9.28L435.93,7.7h-22V.61h31.29Z"/></g><g class="cls-1"><path class="cls-2" d="M623.23,5.52l-17.14,39.4h-9.28L614,7.7h-22V.61h31.29Z"/><path class="cls-2" d="M659.23,44.92H628.86v-6l14.33-15.28A35.18,35.18,0,0,0,647.56,18,9.1,9.1,0,0,0,649,13.42a6.74,6.74,0,0,0-1.5-4.64,5.36,5.36,0,0,0-4.26-1.69,5.81,5.81,0,0,0-4.7,2.06,8.12,8.12,0,0,0-1.72,5.4H628a14.55,14.55,0,0,1,1.94-7.4,13.67,13.67,0,0,1,5.46-5.25,16.57,16.57,0,0,1,8-1.9Q650.22,0,654,3.29t3.79,9.28a15,15,0,0,1-1.7,6.7,37.36,37.36,0,0,1-5.85,7.94L640.18,37.83h19.05Z"/><path class="cls-2" d="M694.75,5.52l-17.13,39.4h-9.29L685.5,7.7h-22V.61h31.29Z"/><path class="cls-2" d="M709.33,18.87H714a6.63,6.63,0,0,0,5-1.67,6.17,6.17,0,0,0,1.61-4.45A5.43,5.43,0,0,0,719,8.58a6.19,6.19,0,0,0-4.39-1.49,6.43,6.43,0,0,0-4.23,1.39,4.41,4.41,0,0,0-1.71,3.6h-8.8a10.81,10.81,0,0,1,1.88-6.22A12.44,12.44,0,0,1,707,1.55,17.53,17.53,0,0,1,714.38,0q7,0,11,3.36a11.48,11.48,0,0,1,4,9.27,9.3,9.3,0,0,1-1.86,5.6,12.09,12.09,0,0,1-4.87,3.93,11,11,0,0,1,5.59,4,10.93,10.93,0,0,1,1.84,6.33A11.66,11.66,0,0,1,725.78,42q-4.31,3.57-11.4,3.56A16.39,16.39,0,0,1,703.53,42a11.41,11.41,0,0,1-4.21-9.25h8.79A5.13,5.13,0,0,0,710,36.86a7.82,7.82,0,0,0,9.53-.08,5.71,5.71,0,0,0,1.78-4.4q0-6.63-7.3-6.63h-4.66Z"/></g><g class="cls-1"><path class="cls-2" d="M892.28.15V7.4h-.85c-4,.06-7.18,1.09-9.6,3.1a12.61,12.61,0,0,0-4.37,8.37,12,12,0,0,1,8.92-3.59,11.29,11.29,0,0,1,9.19,4.14Q899,23.56,899,30.31a16.32,16.32,0,0,1-1.87,7.83,13.35,13.35,0,0,1-5.3,5.44,15.35,15.35,0,0,1-7.74,2,14.36,14.36,0,0,1-11.31-4.87c-2.87-3.24-4.31-7.58-4.31-13V24.5a28.42,28.42,0,0,1,2.73-12.74A19.94,19.94,0,0,1,879,3.21,22.91,22.91,0,0,1,890.82.15ZM883.7,22.37a7,7,0,0,0-3.86,1.11,6.71,6.71,0,0,0-2.56,2.93v2.67A11.92,11.92,0,0,0,879,36a5.61,5.61,0,0,0,4.87,2.47,5.52,5.52,0,0,0,4.58-2.23,9.1,9.1,0,0,0,1.75-5.79,9.06,9.06,0,0,0-1.76-5.83A5.76,5.76,0,0,0,883.7,22.37Z"/><path class="cls-2" d="M934.32,5.52l-17.14,39.4H907.9L925.06,7.7H903V.61h31.29Z"/><path class="cls-2" d="M941.26,23.13,943.81.61h24.84V7.94H951l-1.1,9.53a13.9,13.9,0,0,1,6.67-1.67q6.33,0,9.92,3.92t3.59,11a16.08,16.08,0,0,1-1.81,7.69,12.83,12.83,0,0,1-5.19,5.26,16.16,16.16,0,0,1-8,1.87,17.14,17.14,0,0,1-7.46-1.63,13.12,13.12,0,0,1-5.43-4.58,12.44,12.44,0,0,1-2.12-6.72h8.7a6.51,6.51,0,0,0,1.94,4.3,6.09,6.09,0,0,0,4.33,1.54,5.42,5.42,0,0,0,4.6-2.14,9.93,9.93,0,0,0,1.61-6.08,8.26,8.26,0,0,0-1.85-5.78,6.83,6.83,0,0,0-5.27-2,7.59,7.59,0,0,0-5.08,1.65l-.85.79Z"/><path class="cls-2" d="M1004.59,12.39a10.25,10.25,0,0,1-1.61,5.72,11.7,11.7,0,0,1-4.44,4,12.86,12.86,0,0,1,5.11,4.27,11,11,0,0,1,1.89,6.41,11.61,11.61,0,0,1-4,9.33q-4,3.42-10.93,3.42c-4.6,0-8.26-1.14-11-3.44a11.57,11.57,0,0,1-4-9.31,11,11,0,0,1,1.89-6.42,12.49,12.49,0,0,1,5.08-4.26,11.59,11.59,0,0,1-4.43-4,10.33,10.33,0,0,1-1.6-5.72,11.49,11.49,0,0,1,3.78-9Q984.08,0,990.56,0t10.24,3.33A11.43,11.43,0,0,1,1004.59,12.39Zm-7.88,19.75A6.41,6.41,0,0,0,995,27.51a6,6,0,0,0-4.51-1.73,5.94,5.94,0,0,0-4.47,1.72,6.35,6.35,0,0,0-1.68,4.64A6.36,6.36,0,0,0,986,36.71a6.87,6.87,0,0,0,9.05.06A6.35,6.35,0,0,0,996.71,32.14Zm-.91-19.33a6.09,6.09,0,0,0-1.37-4.15,4.84,4.84,0,0,0-3.87-1.57,4.9,4.9,0,0,0-3.83,1.52,6.09,6.09,0,0,0-1.37,4.2,6.4,6.4,0,0,0,1.37,4.27,4.8,4.8,0,0,0,3.86,1.61,4.75,4.75,0,0,0,3.85-1.61A6.4,6.4,0,0,0,995.8,12.81Z"/></g><g class="cls-1"><path class="cls-2" d="M1179.63,44.92h-30.38v-6l14.34-15.28A36.39,36.39,0,0,0,1168,18a9.08,9.08,0,0,0,1.41-4.57,6.79,6.79,0,0,0-1.49-4.64,5.39,5.39,0,0,0-4.26-1.69,5.79,5.79,0,0,0-4.7,2.06,8.12,8.12,0,0,0-1.72,5.4h-8.83a14.54,14.54,0,0,1,1.93-7.4,13.67,13.67,0,0,1,5.46-5.25,16.63,16.63,0,0,1,8-1.9q6.84,0,10.64,3.29t3.79,9.28a14.91,14.91,0,0,1-1.71,6.7,36.91,36.91,0,0,1-5.84,7.94l-10.08,10.62h19.06Z"/><path class="cls-2" d="M1194,18.87h4.69a6.62,6.62,0,0,0,5-1.67,6.13,6.13,0,0,0,1.61-4.45,5.46,5.46,0,0,0-1.59-4.17,6.24,6.24,0,0,0-4.4-1.49A6.43,6.43,0,0,0,1195,8.48a4.41,4.41,0,0,0-1.71,3.6h-8.79a10.8,10.8,0,0,1,1.87-6.22,12.5,12.5,0,0,1,5.23-4.31A17.61,17.61,0,0,1,1199,0c4.68,0,8.36,1.12,11,3.36a11.48,11.48,0,0,1,4,9.27,9.3,9.3,0,0,1-1.86,5.6,12,12,0,0,1-4.87,3.93,11,11,0,0,1,5.59,4,10.85,10.85,0,0,1,1.84,6.33,11.66,11.66,0,0,1-4.31,9.46q-4.31,3.57-11.39,3.56-6.64,0-10.86-3.5a11.41,11.41,0,0,1-4.21-9.25h8.8a5.1,5.1,0,0,0,1.87,4.08,7.8,7.8,0,0,0,9.52-.08,5.71,5.71,0,0,0,1.78-4.4q0-6.63-7.3-6.63H1194Z"/><path class="cls-2" d="M1251.15,44.92h-30.37v-6l14.33-15.28a35.18,35.18,0,0,0,4.37-5.63,9.1,9.1,0,0,0,1.42-4.57,6.74,6.74,0,0,0-1.5-4.64,5.36,5.36,0,0,0-4.26-1.69,5.81,5.81,0,0,0-4.7,2.06,8.12,8.12,0,0,0-1.72,5.4h-8.83a14.55,14.55,0,0,1,1.94-7.4,13.67,13.67,0,0,1,5.46-5.25,16.56,16.56,0,0,1,8-1.9q6.86,0,10.64,3.29t3.79,9.28a15,15,0,0,1-1.7,6.7,37.36,37.36,0,0,1-5.85,7.94L1232.1,37.83h19.05Z"/><path class="cls-2" d="M1280.4.15V7.4h-.85q-6,.09-9.6,3.1a12.61,12.61,0,0,0-4.37,8.37,12,12,0,0,1,8.92-3.59,11.29,11.29,0,0,1,9.19,4.14q3.4,4.14,3.41,10.89a16.44,16.44,0,0,1-1.87,7.83,13.41,13.41,0,0,1-5.3,5.44,15.38,15.38,0,0,1-7.75,2,14.35,14.35,0,0,1-11.3-4.87c-2.88-3.24-4.31-7.58-4.31-13V24.5a28.56,28.56,0,0,1,2.72-12.74,20,20,0,0,1,7.83-8.55A22.88,22.88,0,0,1,1278.94.15Zm-8.58,22.22a7,7,0,0,0-3.87,1.11,6.69,6.69,0,0,0-2.55,2.93v2.67a11.84,11.84,0,0,0,1.73,6.89,5.61,5.61,0,0,0,4.87,2.47,5.52,5.52,0,0,0,4.58-2.23,9.1,9.1,0,0,0,1.75-5.79,9.12,9.12,0,0,0-1.76-5.83A5.76,5.76,0,0,0,1271.82,22.37Z"/></g></svg>