<svg id="Layer_1" data-name="Layer 1" xmlns="http://www.w3.org/2000/svg" viewBox="0 0 1333 46"><defs><style>.cls-1{opacity:0.1;}.cls-2{fill:#76c48d;}</style></defs><g class="cls-1"><path class="cls-2" d="M75.77,26.6q0,9.19-3.8,14.06T60.83,45.53q-7.24,0-11.08-4.78T45.82,27.06V18.9q0-9.28,3.85-14.09T60.77,0Q68,0,71.85,4.76t3.92,13.68Zm-8.79-9c0-3.67-.51-6.35-1.51-8a5.1,5.1,0,0,0-4.7-2.51,5,5,0,0,0-4.58,2.39q-1.48,2.4-1.57,7.48V27.75q0,5.41,1.47,8.06a5,5,0,0,0,4.74,2.63,4.92,4.92,0,0,0,4.65-2.53c1-1.68,1.45-4.26,1.5-7.74Z"/><path class="cls-2" d="M90.65,18.87h4.69a6.62,6.62,0,0,0,5-1.67,6.14,6.14,0,0,0,1.62-4.45,5.46,5.46,0,0,0-1.6-4.17,6.22,6.22,0,0,0-4.4-1.49,6.47,6.47,0,0,0-4.23,1.39,4.4,4.4,0,0,0-1.7,3.6h-8.8a10.8,10.8,0,0,1,1.87-6.22A12.47,12.47,0,0,1,88.3,1.55,17.53,17.53,0,0,1,95.71,0q7,0,11,3.36a11.5,11.5,0,0,1,4,9.27,9.36,9.36,0,0,1-1.85,5.6A12.16,12.16,0,0,1,104,22.16a11,11,0,0,1,5.58,4,10.91,10.91,0,0,1,1.84,6.34,11.66,11.66,0,0,1-4.3,9.46c-2.88,2.38-6.67,3.56-11.4,3.56q-6.64,0-10.85-3.5a11.43,11.43,0,0,1-4.22-9.25h8.8a5.1,5.1,0,0,0,1.87,4.08,7.82,7.82,0,0,0,9.53-.08,5.74,5.74,0,0,0,1.78-4.4q0-6.63-7.31-6.63H90.65Z"/><path class="cls-2" d="M138,27.21a11.11,11.11,0,0,1-8,3.38,11.92,11.92,0,0,1-9.41-4q-3.52-4-3.53-10.89a17,17,0,0,1,1.91-8A13.88,13.88,0,0,1,124.29,2,14.72,14.72,0,0,1,132,0a14.09,14.09,0,0,1,7.79,2.19A14.35,14.35,0,0,1,145,8.49,22.61,22.61,0,0,1,147,17.9v3.25q0,11.09-5.51,17.41t-15.61,6.76l-2.16,0V38l1.95,0Q137.11,37.47,138,27.21Zm-5.87-3.35a6.17,6.17,0,0,0,3.67-1.09,7.43,7.43,0,0,0,2.33-2.65V16.5a12,12,0,0,0-1.71-6.94,5.28,5.28,0,0,0-4.56-2.47,5.15,5.15,0,0,0-4.36,2.42,10.33,10.33,0,0,0-1.7,6.07,10,10,0,0,0,1.66,6A5.37,5.37,0,0,0,132.17,23.86Z"/><path class="cls-2" d="M162.18,18.87h4.69a6.63,6.63,0,0,0,5-1.67,6.17,6.17,0,0,0,1.61-4.45,5.43,5.43,0,0,0-1.6-4.17,6.19,6.19,0,0,0-4.39-1.49,6.48,6.48,0,0,0-4.24,1.39,4.43,4.43,0,0,0-1.7,3.6h-8.8a10.81,10.81,0,0,1,1.88-6.22,12.44,12.44,0,0,1,5.23-4.31A17.53,17.53,0,0,1,167.23,0q7,0,11,3.36a11.48,11.48,0,0,1,4,9.27,9.3,9.3,0,0,1-1.86,5.6,12.09,12.09,0,0,1-4.87,3.93,11,11,0,0,1,5.59,4,11,11,0,0,1,1.84,6.34A11.66,11.66,0,0,1,178.63,42q-4.31,3.57-11.4,3.56A16.39,16.39,0,0,1,156.38,42a11.42,11.42,0,0,1-4.21-9.25H161a5.13,5.13,0,0,0,1.87,4.08,7.82,7.82,0,0,0,9.53-.08,5.71,5.71,0,0,0,1.78-4.4q0-6.63-7.3-6.63h-4.66Z"/></g><g class="cls-1"><path class="cls-2" d="M329.64,44.92h-8.8V11l-10.5,3.25V7.12L328.69.55h.95Z"/><path class="cls-2" d="M353,18.87h4.69a6.62,6.62,0,0,0,5-1.67,6.13,6.13,0,0,0,1.61-4.45,5.46,5.46,0,0,0-1.59-4.17,6.22,6.22,0,0,0-4.4-1.49A6.43,6.43,0,0,0,354,8.48a4.41,4.41,0,0,0-1.71,3.6h-8.79a10.8,10.8,0,0,1,1.87-6.22,12.5,12.5,0,0,1,5.23-4.31A17.61,17.61,0,0,1,358,0c4.68,0,8.36,1.12,11,3.36a11.48,11.48,0,0,1,4,9.27,9.3,9.3,0,0,1-1.86,5.6,12,12,0,0,1-4.87,3.93,11,11,0,0,1,5.59,4,10.91,10.91,0,0,1,1.84,6.34A11.66,11.66,0,0,1,369.43,42q-4.31,3.57-11.39,3.56-6.65,0-10.85-3.5A11.4,11.4,0,0,1,343,32.78h8.8a5.1,5.1,0,0,0,1.87,4.08,7.8,7.8,0,0,0,9.52-.08,5.71,5.71,0,0,0,1.78-4.4q0-6.63-7.3-6.63H353Z"/><path class="cls-2" d="M405.82,28.25h5v7.09h-5v9.58H397V35.34H378.85l-.39-5.54L396.93.61h8.89Zm-18.6,0H397V12.6l-.57,1Z"/><path class="cls-2" d="M441.58,28.25h5v7.09h-5v9.58h-8.79V35.34H414.62l-.4-5.54L432.7.61h8.88Zm-18.59,0h9.8V12.6l-.58,1Z"/></g><g class="cls-1"><path class="cls-2" d="M614.18,27.21a11.15,11.15,0,0,1-8,3.38,11.92,11.92,0,0,1-9.41-4q-3.53-4-3.53-10.89a17,17,0,0,1,1.91-8A13.94,13.94,0,0,1,600.42,2a14.72,14.72,0,0,1,7.67-2,14.09,14.09,0,0,1,7.79,2.19,14.44,14.44,0,0,1,5.3,6.3,22.77,22.77,0,0,1,1.91,9.41v3.25q0,11.09-5.51,17.41T602,45.32l-2.16,0V38l2,0Q613.23,37.47,614.18,27.21Zm-5.88-3.35A6.17,6.17,0,0,0,612,22.77a7.43,7.43,0,0,0,2.33-2.65V16.5a12,12,0,0,0-1.71-6.94A5.27,5.27,0,0,0,608,7.09a5.15,5.15,0,0,0-4.36,2.42,10.33,10.33,0,0,0-1.7,6.07,10,10,0,0,0,1.66,6A5.37,5.37,0,0,0,608.3,23.86Z"/><path class="cls-2" d="M659.49,5.52l-17.13,39.4h-9.28L650.24,7.7h-22V.61h31.28Z"/><path class="cls-2" d="M691.15,28.25h5v7.09h-5v9.58h-8.8V35.34H664.18l-.39-5.54L682.26.61h8.89Zm-18.6,0h9.8V12.6l-.58,1Z"/><path class="cls-2" d="M731.26,44.92H700.89v-6l14.33-15.28A35.18,35.18,0,0,0,719.59,18,9.13,9.13,0,0,0,721,13.42a6.79,6.79,0,0,0-1.49-4.64,5.39,5.39,0,0,0-4.27-1.69,5.82,5.82,0,0,0-4.7,2.06,8.17,8.17,0,0,0-1.72,5.4H700a14.52,14.52,0,0,1,1.93-7.4A13.67,13.67,0,0,1,707.4,1.9a16.6,16.6,0,0,1,8-1.9Q722.25,0,726,3.29t3.79,9.28a15,15,0,0,1-1.7,6.7,37.61,37.61,0,0,1-5.84,7.94L712.21,37.83h19Z"/></g><g class="cls-1"><path class="cls-2" d="M890.29,44.92H881.5V11L871,14.27V7.12L889.35.55h.94Z"/><path class="cls-2" d="M935.07,44.92H904.69v-6L919,23.62A35.63,35.63,0,0,0,923.39,18a9,9,0,0,0,1.42-4.57,6.79,6.79,0,0,0-1.49-4.64,5.39,5.39,0,0,0-4.26-1.69,5.83,5.83,0,0,0-4.71,2.06,8.17,8.17,0,0,0-1.72,5.4h-8.82a14.52,14.52,0,0,1,1.93-7.4A13.67,13.67,0,0,1,911.2,1.9a16.63,16.63,0,0,1,8-1.9q6.84,0,10.64,3.29t3.79,9.28a14.91,14.91,0,0,1-1.71,6.7,37.26,37.26,0,0,1-5.84,7.94L916,37.83h19.06Z"/><path class="cls-2" d="M949.4,18.87h4.69a6.63,6.63,0,0,0,5-1.67,6.13,6.13,0,0,0,1.61-4.45,5.46,5.46,0,0,0-1.59-4.17,6.24,6.24,0,0,0-4.4-1.49,6.43,6.43,0,0,0-4.23,1.39,4.41,4.41,0,0,0-1.71,3.6h-8.79a10.8,10.8,0,0,1,1.87-6.22A12.5,12.5,0,0,1,947,1.55,17.59,17.59,0,0,1,954.45,0q7,0,11,3.36a11.48,11.48,0,0,1,4,9.27,9.3,9.3,0,0,1-1.86,5.6,12,12,0,0,1-4.87,3.93,11,11,0,0,1,5.59,4,11,11,0,0,1,1.84,6.34A11.66,11.66,0,0,1,965.85,42q-4.3,3.57-11.4,3.56A16.39,16.39,0,0,1,943.6,42a11.42,11.42,0,0,1-4.21-9.25h8.79a5.11,5.11,0,0,0,1.88,4.08,7.8,7.8,0,0,0,9.52-.08,5.71,5.71,0,0,0,1.78-4.4q0-6.63-7.3-6.63H949.4Z"/><path class="cls-2" d="M977.53,23.13,980.08.61h24.84V7.94H987.29l-1.09,9.53a13.9,13.9,0,0,1,6.67-1.67q6.33,0,9.92,3.92t3.59,11a16.08,16.08,0,0,1-1.81,7.69,12.83,12.83,0,0,1-5.19,5.26,16.18,16.18,0,0,1-8,1.87A17.13,17.13,0,0,1,984,43.9a13.15,13.15,0,0,1-5.44-4.58,12.52,12.52,0,0,1-2.11-6.72h8.7A6.51,6.51,0,0,0,987,36.9a6.09,6.09,0,0,0,4.33,1.54,5.4,5.4,0,0,0,4.6-2.15,10,10,0,0,0,1.61-6.07,8.26,8.26,0,0,0-1.85-5.78,6.83,6.83,0,0,0-5.27-2,7.59,7.59,0,0,0-5.08,1.65l-.85.79Z"/></g><g class="cls-1"><path class="cls-2" d="M1179.58,26.6q0,9.19-3.8,14.06t-11.14,4.87q-7.25,0-11.08-4.78t-3.92-13.69V18.9q0-9.28,3.85-14.09T1164.58,0q7.25,0,11.08,4.76t3.92,13.68Zm-8.79-9q0-5.5-1.51-8a5.09,5.09,0,0,0-4.7-2.51A5,5,0,0,0,1160,9.48q-1.49,2.4-1.57,7.48V27.75q0,5.41,1.48,8.06a5,5,0,0,0,4.73,2.63,5,5,0,0,0,4.66-2.53q1.42-2.52,1.49-7.74Z"/><path class="cls-2" d="M1215.35,26.6q0,9.19-3.81,14.06t-11.14,4.87q-7.25,0-11.08-4.78t-3.92-13.69V18.9q0-9.28,3.85-14.09T1200.34,0q7.25,0,11.08,4.76t3.93,13.68Zm-8.8-9q0-5.5-1.51-8a5.09,5.09,0,0,0-4.7-2.51,5,5,0,0,0-4.58,2.39q-1.47,2.4-1.57,7.48V27.75c0,3.61.5,6.3,1.48,8.06a5,5,0,0,0,4.73,2.63,4.94,4.94,0,0,0,4.66-2.53q1.43-2.52,1.49-7.74Z"/><path class="cls-2" d="M1250.17,12.39a10.26,10.26,0,0,1-1.62,5.72,11.62,11.62,0,0,1-4.44,4,12.86,12.86,0,0,1,5.11,4.27,11,11,0,0,1,1.89,6.41,11.61,11.61,0,0,1-4,9.33q-4,3.42-10.92,3.42t-11-3.44a11.57,11.57,0,0,1-4-9.31,11,11,0,0,1,1.89-6.42,12.56,12.56,0,0,1,5.08-4.26,11.59,11.59,0,0,1-4.43-4,10.41,10.41,0,0,1-1.6-5.72,11.49,11.49,0,0,1,3.78-9Q1229.65,0,1236.14,0t10.24,3.33A11.46,11.46,0,0,1,1250.17,12.39Zm-7.89,19.75a6.37,6.37,0,0,0-1.67-4.63,6.71,6.71,0,0,0-9,0,6.35,6.35,0,0,0-1.67,4.64,6.36,6.36,0,0,0,1.64,4.57,6.89,6.89,0,0,0,9.06.06A6.39,6.39,0,0,0,1242.28,32.14Zm-.91-19.33A6.09,6.09,0,0,0,1240,8.66a4.83,4.83,0,0,0-3.86-1.57,4.91,4.91,0,0,0-3.84,1.52,6.09,6.09,0,0,0-1.37,4.2,6.36,6.36,0,0,0,1.37,4.26,5.41,5.41,0,0,0,7.72,0A6.4,6.4,0,0,0,1241.37,12.81Z"/><path class="cls-2" d="M1287.18,5.52,1270,44.92h-9.28L1277.92,7.7h-22V.61h31.29Z"/></g></svg>