<svg id="Layer_1" data-name="Layer 1" xmlns="http://www.w3.org/2000/svg" viewBox="0 0 1170 37"><defs><style>.cls-1{opacity:0.1;}.cls-2{fill:#76c48d;}</style></defs><g class="cls-1"><path class="cls-2" d="M8.12,15.31h3.81A5.33,5.33,0,0,0,16,14a4.92,4.92,0,0,0,1.31-3.6A4.43,4.43,0,0,0,16,7,5.08,5.08,0,0,0,12.4,5.75,5.29,5.29,0,0,0,9,6.88,3.59,3.59,0,0,0,7.58,9.8H.44A8.81,8.81,0,0,1,2,4.75,10.16,10.16,0,0,1,6.21,1.26a14.16,14.16,0,0,1,6-1.26q5.72,0,8.94,2.73a9.31,9.31,0,0,1,3.24,7.52,7.51,7.51,0,0,1-1.51,4.54A9.7,9.7,0,0,1,18.94,18a8.85,8.85,0,0,1,4.53,3.26A8.82,8.82,0,0,1,25,26.38a9.48,9.48,0,0,1-3.5,7.68Q18,36.94,12.22,36.94a13.27,13.27,0,0,1-8.8-2.84A9.26,9.26,0,0,1,0,26.6H7.14a4.12,4.12,0,0,0,1.52,3.31,5.62,5.62,0,0,0,3.74,1.28,5.64,5.64,0,0,0,4-1.35,4.63,4.63,0,0,0,1.44-3.56q0-5.38-5.93-5.39H8.12Z"/><path class="cls-2" d="M54.08,21.58Q54.08,29.05,51,33t-9,3.95q-5.88,0-9-3.87T29.78,22V15.34q0-7.54,3.13-11.44t9-3.9q5.88,0,9,3.86T54.08,15ZM47,14.31q0-4.49-1.23-6.52a4.12,4.12,0,0,0-3.81-2,4.07,4.07,0,0,0-3.72,1.94,12.34,12.34,0,0,0-1.27,6.07v8.75q0,4.41,1.2,6.54A4.07,4.07,0,0,0,42,31.19a4,4,0,0,0,3.78-2.05A13.64,13.64,0,0,0,47,22.86Z"/><path class="cls-2" d="M83.1,21.58Q83.1,29.05,80,33t-9,3.95q-5.86,0-9-3.87T58.8,22V15.34q0-7.54,3.12-11.44t9-3.9q5.86,0,9,3.86T83.1,15ZM76,14.31c0-3-.4-5.16-1.22-6.52a4.13,4.13,0,0,0-3.81-2,4.07,4.07,0,0,0-3.72,1.94,12.34,12.34,0,0,0-1.27,6.07v8.75a13.92,13.92,0,0,0,1.19,6.54A4.07,4.07,0,0,0,71,31.19a4,4,0,0,0,3.78-2.05A13.38,13.38,0,0,0,76,22.86Z"/><path class="cls-2" d="M112.12,21.58q0,7.47-3.09,11.41t-9,3.95q-5.88,0-9-3.87T87.82,22V15.34q0-7.54,3.12-11.44t9-3.9q5.88,0,9,3.86T112.12,15ZM105,14.31q0-4.49-1.22-6.52a4.14,4.14,0,0,0-3.82-2,4,4,0,0,0-3.71,1.94A12.33,12.33,0,0,0,95,13.76v8.75q0,4.41,1.2,6.54A4.07,4.07,0,0,0,100,31.19a4,4,0,0,0,3.78-2.05A13.51,13.51,0,0,0,105,22.86Z"/></g><g class="cls-1"><path class="cls-2" d="M266.06,18.77,268.13.49h20.15v6H274l-.89,7.73a11.28,11.28,0,0,1,5.41-1.36A10.36,10.36,0,0,1,286.55,16q2.93,3.2,2.92,8.92A13,13,0,0,1,288,31.15a10.45,10.45,0,0,1-4.21,4.28,13.19,13.19,0,0,1-6.47,1.51,13.94,13.94,0,0,1-6.05-1.32,10.78,10.78,0,0,1-4.41-3.71,10.17,10.17,0,0,1-1.72-5.46h7.07a5.25,5.25,0,0,0,1.56,3.49,5,5,0,0,0,3.52,1.25A4.38,4.38,0,0,0,281,29.45a8.08,8.08,0,0,0,1.31-4.93,6.65,6.65,0,0,0-1.51-4.69,5.5,5.5,0,0,0-4.27-1.63,6.22,6.22,0,0,0-4.12,1.33l-.69.65Z"/><path class="cls-2" d="M295.07,18.77,297.15.49H317.3v6H303l-.89,7.73a11.28,11.28,0,0,1,5.41-1.36A10.37,10.37,0,0,1,315.57,16q2.91,3.2,2.91,8.92A13.11,13.11,0,0,1,317,31.15a10.42,10.42,0,0,1-4.22,4.28,13.14,13.14,0,0,1-6.47,1.51,14,14,0,0,1-6.05-1.32,10.69,10.69,0,0,1-4.4-3.71,10.17,10.17,0,0,1-1.72-5.46h7.06a5.25,5.25,0,0,0,1.57,3.49,5,5,0,0,0,3.52,1.25A4.39,4.39,0,0,0,310,29.45a8.08,8.08,0,0,0,1.31-4.93,6.65,6.65,0,0,0-1.51-4.69,5.51,5.51,0,0,0-4.27-1.63,6.24,6.24,0,0,0-4.13,1.33l-.69.65Z"/><path class="cls-2" d="M340.36,36.45h-7.13V8.94l-8.52,2.64V5.78L339.6.44h.76Z"/><path class="cls-2" d="M376.25,21.58q0,7.47-3.09,11.41t-9,3.95q-5.88,0-9-3.87T352,22V15.34q0-7.54,3.12-11.44t9-3.9q5.88,0,9,3.86T376.25,15Zm-7.14-7.27q0-4.49-1.22-6.52a4.14,4.14,0,0,0-3.82-2,4,4,0,0,0-3.71,1.94,12.33,12.33,0,0,0-1.28,6.07v8.75q0,4.41,1.2,6.54a4.07,4.07,0,0,0,3.84,2.14,4,4,0,0,0,3.78-2.05,13.51,13.51,0,0,0,1.21-6.28Z"/></g><g class="cls-1"><path class="cls-2" d="M553.77,36.45H529.12V31.56l11.64-12.4a29.11,29.11,0,0,0,3.54-4.56,7.44,7.44,0,0,0,1.15-3.71,5.54,5.54,0,0,0-1.21-3.77,4.39,4.39,0,0,0-3.46-1.37A4.73,4.73,0,0,0,537,7.42a6.59,6.59,0,0,0-1.39,4.38h-7.16a11.76,11.76,0,0,1,1.57-6,11,11,0,0,1,4.43-4.26A13.56,13.56,0,0,1,540.9,0c3.71,0,6.58.89,8.63,2.67a9.44,9.44,0,0,1,3.08,7.53,12.08,12.08,0,0,1-1.38,5.43,30.56,30.56,0,0,1-4.75,6.45l-8.17,8.62h15.46Z"/><path class="cls-2" d="M579.26,22.92h4.07v5.75h-4.07v7.78h-7.14V28.67H557.38l-.33-4.49L572,.49h7.22Zm-15.09,0h8V10.22l-.47.82Z"/><path class="cls-2" d="M604.49,36.45h-7.13V8.94l-8.52,2.64V5.78L603.73.44h.76Z"/><path class="cls-2" d="M633.51,36.45h-7.14V8.94l-8.52,2.64V5.78L632.75.44h.76Z"/></g><g class="cls-1"><path class="cls-2" d="M817.45,21.58q0,7.47-3.08,11.41t-9,3.95q-5.88,0-9-3.87T793.15,22V15.34q0-7.54,3.13-11.44t9-3.9q5.88,0,9,3.86c2.07,2.58,3.14,6.28,3.18,11.11Zm-7.13-7.27q0-4.49-1.22-6.52a4.14,4.14,0,0,0-3.82-2,4.07,4.07,0,0,0-3.72,1.94,12.34,12.34,0,0,0-1.27,6.07v8.75q0,4.41,1.2,6.54a4.07,4.07,0,0,0,3.84,2.14,4,4,0,0,0,3.78-2.05,13.64,13.64,0,0,0,1.21-6.28Z"/><path class="cls-2" d="M846.47,21.58q0,7.47-3.09,11.41c-2,2.64-5.07,3.95-9,3.95s-6.92-1.29-9-3.87-3.14-6.29-3.19-11.12V15.34q0-7.54,3.13-11.44t9-3.9q5.87,0,9,3.86T846.47,15Zm-7.14-7.27c0-3-.4-5.16-1.22-6.52a4.12,4.12,0,0,0-3.81-2,4.07,4.07,0,0,0-3.72,1.94,12.34,12.34,0,0,0-1.27,6.07v8.75q0,4.41,1.2,6.54a4.05,4.05,0,0,0,3.84,2.14,4,4,0,0,0,3.77-2.05,13.38,13.38,0,0,0,1.21-6.28Z"/><path class="cls-2" d="M875.93,36.45H851.29V31.56l11.63-12.4a27.94,27.94,0,0,0,3.54-4.56,7.34,7.34,0,0,0,1.15-3.71,5.49,5.49,0,0,0-1.21-3.77,4.39,4.39,0,0,0-3.46-1.37,4.71,4.71,0,0,0-3.81,1.67,6.6,6.6,0,0,0-1.4,4.38h-7.16a11.76,11.76,0,0,1,1.57-6,11,11,0,0,1,4.43-4.26A13.6,13.6,0,0,1,863.07,0q5.55,0,8.63,2.67a9.43,9.43,0,0,1,3.07,7.53,12.08,12.08,0,0,1-1.38,5.43,30.11,30.11,0,0,1-4.74,6.45l-8.18,8.62h15.46Z"/><path class="cls-2" d="M903.74,10.05a8.36,8.36,0,0,1-1.31,4.64,9.43,9.43,0,0,1-3.6,3.24A10.56,10.56,0,0,1,903,21.4a8.89,8.89,0,0,1,1.53,5.2,9.45,9.45,0,0,1-3.26,7.57c-2.18,1.85-5.13,2.77-8.87,2.77s-6.7-.93-8.89-2.79a9.39,9.39,0,0,1-3.28-7.55,8.94,8.94,0,0,1,1.53-5.21,10.13,10.13,0,0,1,4.12-3.46,9.33,9.33,0,0,1-3.59-3.24,8.36,8.36,0,0,1-1.3-4.64A9.32,9.32,0,0,1,884,2.73Q887.09,0,892.36,0a12.15,12.15,0,0,1,8.31,2.7A9.3,9.3,0,0,1,903.74,10.05Zm-6.4,16A5.2,5.2,0,0,0,896,22.32a5.46,5.46,0,0,0-7.29,0,5.2,5.2,0,0,0-1.36,3.77,5.16,5.16,0,0,0,1.34,3.7,5.56,5.56,0,0,0,7.34,0A5.14,5.14,0,0,0,897.34,26.08ZM896.6,10.4A4.93,4.93,0,0,0,895.49,7a3.93,3.93,0,0,0-3.13-1.28A4,4,0,0,0,889.24,7a4.91,4.91,0,0,0-1.11,3.41,5.14,5.14,0,0,0,1.11,3.45,3.87,3.87,0,0,0,3.14,1.31,3.82,3.82,0,0,0,3.12-1.31A5.14,5.14,0,0,0,896.6,10.4Z"/></g><g class="cls-1"><path class="cls-2" d="M1082,36.45h-24.65V31.56L1069,19.16a29.11,29.11,0,0,0,3.54-4.56,7.44,7.44,0,0,0,1.15-3.71,5.54,5.54,0,0,0-1.21-3.77A4.39,4.39,0,0,0,1069,5.75a4.73,4.73,0,0,0-3.82,1.67,6.59,6.59,0,0,0-1.39,4.38h-7.16a11.86,11.86,0,0,1,1.56-6,11.11,11.11,0,0,1,4.44-4.26A13.56,13.56,0,0,1,1069.16,0c3.71,0,6.58.89,8.63,2.67a9.44,9.44,0,0,1,3.08,7.53,12.08,12.08,0,0,1-1.38,5.43,30.56,30.56,0,0,1-4.75,6.45l-8.17,8.62H1082Z"/><path class="cls-2" d="M1093.66,15.31h3.8a5.35,5.35,0,0,0,4-1.36,5,5,0,0,0,1.31-3.6A4.4,4.4,0,0,0,1101.5,7a5,5,0,0,0-3.57-1.21,5.27,5.27,0,0,0-3.43,1.13,3.59,3.59,0,0,0-1.38,2.92H1086a8.81,8.81,0,0,1,1.52-5.05,10.1,10.1,0,0,1,4.25-3.49,14.16,14.16,0,0,1,6-1.26q5.7,0,8.94,2.73a9.31,9.31,0,0,1,3.24,7.52,7.57,7.57,0,0,1-1.51,4.54,9.77,9.77,0,0,1-4,3.19,8.94,8.94,0,0,1,4.53,3.26,8.89,8.89,0,0,1,1.49,5.14,9.47,9.47,0,0,1-3.49,7.68q-3.49,2.88-9.25,2.88a13.27,13.27,0,0,1-8.8-2.84,9.26,9.26,0,0,1-3.42-7.5h7.13a4.15,4.15,0,0,0,1.52,3.31,6.34,6.34,0,0,0,7.73-.07,4.6,4.6,0,0,0,1.45-3.56q0-5.38-5.93-5.39h-3.78Z"/><path class="cls-2" d="M1116.48,18.77,1118.55.49h20.16v6h-14.3l-.89,7.73a11.26,11.26,0,0,1,5.41-1.36,10.39,10.39,0,0,1,8,3.18q2.91,3.2,2.91,8.92a13,13,0,0,1-1.47,6.23,10.39,10.39,0,0,1-4.21,4.28,13.17,13.17,0,0,1-6.47,1.51,14,14,0,0,1-6-1.32,10.78,10.78,0,0,1-4.41-3.71,10.08,10.08,0,0,1-1.71-5.46h7.06a5.25,5.25,0,0,0,1.57,3.49,5,5,0,0,0,3.52,1.25,4.4,4.4,0,0,0,3.73-1.74,8.08,8.08,0,0,0,1.3-4.93,6.69,6.69,0,0,0-1.5-4.69A5.52,5.52,0,0,0,1127,18.2a6.23,6.23,0,0,0-4.13,1.33l-.69.65Z"/><path class="cls-2" d="M1163.8.12V6h-.7a12.14,12.14,0,0,0-7.79,2.52,10.23,10.23,0,0,0-3.54,6.79A9.73,9.73,0,0,1,1159,12.4a9.15,9.15,0,0,1,7.45,3.36,13.42,13.42,0,0,1,2.77,8.84,13.23,13.23,0,0,1-1.52,6.34,10.77,10.77,0,0,1-4.3,4.42,12.39,12.39,0,0,1-6.28,1.58A11.65,11.65,0,0,1,1148,33q-3.5-3.95-3.49-10.54V19.88a23.16,23.16,0,0,1,2.21-10.34A16.15,16.15,0,0,1,1153,2.61a18.58,18.58,0,0,1,9.59-2.49Zm-7,18a5.67,5.67,0,0,0-3.13.9,5.44,5.44,0,0,0-2.08,2.38V23.6a9.59,9.59,0,0,0,1.41,5.58,4.81,4.81,0,0,0,7.67.2,7.43,7.43,0,0,0,1.42-4.7,7.35,7.35,0,0,0-1.44-4.73A4.65,4.65,0,0,0,1156.83,18.15Z"/></g></svg>