<svg id="Layer_1" data-name="Layer 1" xmlns="http://www.w3.org/2000/svg" viewBox="0 0 1333 46"><defs><style>.cls-1{opacity:0.1;}.cls-2{fill:#76c48d;}</style></defs><g class="cls-1"><path class="cls-2" d="M47.31,23.13,49.87.61H74.71V7.94H57.08L56,17.47a13.89,13.89,0,0,1,6.66-1.67q6.33,0,9.93,3.92t3.59,11a16.2,16.2,0,0,1-1.81,7.69,12.83,12.83,0,0,1-5.19,5.26,16.2,16.2,0,0,1-8,1.87,17.1,17.1,0,0,1-7.45-1.63,13.15,13.15,0,0,1-5.44-4.58,12.43,12.43,0,0,1-2.11-6.72h8.7a6.46,6.46,0,0,0,1.94,4.3,6.09,6.09,0,0,0,4.33,1.54,5.4,5.4,0,0,0,4.6-2.15,10,10,0,0,0,1.61-6.07,8.21,8.21,0,0,0-1.86-5.78,6.79,6.79,0,0,0-5.26-2,7.57,7.57,0,0,0-5.08,1.65l-.86.79Z"/><path class="cls-2" d="M105.63.15V7.4h-.85q-6,.09-9.6,3.1a12.57,12.57,0,0,0-4.37,8.37,12,12,0,0,1,8.92-3.59,11.3,11.3,0,0,1,9.19,4.14q3.4,4.14,3.41,10.89a16.33,16.33,0,0,1-1.88,7.83,13.33,13.33,0,0,1-5.29,5.44,15.38,15.38,0,0,1-7.75,2,14.34,14.34,0,0,1-11.3-4.87c-2.88-3.24-4.31-7.58-4.31-13V24.5a28.56,28.56,0,0,1,2.72-12.74,20.06,20.06,0,0,1,7.82-8.55A22.92,22.92,0,0,1,104.17.15ZM97.05,22.37a7,7,0,0,0-3.87,1.11,6.71,6.71,0,0,0-2.56,2.93v2.67A11.8,11.8,0,0,0,92.36,36a5.92,5.92,0,0,0,9.45.25,9.1,9.1,0,0,0,1.75-5.79,9.12,9.12,0,0,0-1.76-5.83A5.76,5.76,0,0,0,97.05,22.37Z"/><path class="cls-2" d="M143.55,28.25h5v7.09h-5v9.58h-8.79V35.34H116.59l-.4-5.54L134.67.61h8.88Zm-18.59,0h9.8V12.6l-.58,1Z"/><path class="cls-2" d="M162.24,18.87h4.69a6.63,6.63,0,0,0,5-1.67,6.13,6.13,0,0,0,1.61-4.45,5.46,5.46,0,0,0-1.59-4.17,6.24,6.24,0,0,0-4.4-1.49,6.43,6.43,0,0,0-4.23,1.39,4.41,4.41,0,0,0-1.71,3.6h-8.79a10.8,10.8,0,0,1,1.87-6.22,12.5,12.5,0,0,1,5.23-4.31A17.53,17.53,0,0,1,167.29,0q7,0,11,3.36a11.48,11.48,0,0,1,4,9.27,9.3,9.3,0,0,1-1.86,5.6,12.09,12.09,0,0,1-4.87,3.93,11,11,0,0,1,5.59,4A10.91,10.91,0,0,1,183,32.51,11.66,11.66,0,0,1,178.69,42q-4.31,3.57-11.4,3.56A16.39,16.39,0,0,1,156.44,42a11.42,11.42,0,0,1-4.21-9.25H161a5.11,5.11,0,0,0,1.88,4.08,7.8,7.8,0,0,0,9.52-.08,5.71,5.71,0,0,0,1.78-4.4q0-6.63-7.3-6.63h-4.66Z"/></g><g class="cls-1"><path class="cls-2" d="M329.7,44.92h-8.8V11l-10.5,3.25V7.12L328.76.55h.94Z"/><path class="cls-2" d="M365.46,44.92h-8.79V11l-10.5,3.25V7.12L364.52.55h.94Z"/><path class="cls-2" d="M410.23,44.92H379.86v-6l14.33-15.28A35.18,35.18,0,0,0,398.56,18,9,9,0,0,0,400,13.42a6.79,6.79,0,0,0-1.49-4.64,5.39,5.39,0,0,0-4.27-1.69,5.82,5.82,0,0,0-4.7,2.06,8.17,8.17,0,0,0-1.72,5.4H379a14.52,14.52,0,0,1,1.93-7.4,13.67,13.67,0,0,1,5.46-5.25,16.6,16.6,0,0,1,8-1.9Q401.22,0,405,3.29t3.79,9.28a14.89,14.89,0,0,1-1.7,6.7,37.61,37.61,0,0,1-5.84,7.94L391.18,37.83h19.05Z"/><path class="cls-2" d="M441.64,28.25h5v7.09h-5v9.58h-8.79V35.34H414.68l-.4-5.54L432.76.61h8.88Zm-18.59,0h9.8V12.6l-.58,1Z"/></g><g class="cls-1"><path class="cls-2" d="M595,23.13,597.53.61h24.83V7.94H604.74l-1.1,9.53a13.92,13.92,0,0,1,6.67-1.67q6.33,0,9.92,3.92t3.59,11A16.08,16.08,0,0,1,622,38.4a12.71,12.71,0,0,1-5.19,5.26,16.16,16.16,0,0,1-8,1.87,17.14,17.14,0,0,1-7.46-1.63A13.19,13.19,0,0,1,596,39.32a12.53,12.53,0,0,1-2.12-6.72h8.71a6.5,6.5,0,0,0,1.93,4.3,6.11,6.11,0,0,0,4.34,1.54,5.37,5.37,0,0,0,4.59-2.15A9.9,9.9,0,0,0,615,30.22a8.21,8.21,0,0,0-1.86-5.78,6.81,6.81,0,0,0-5.26-2,7.62,7.62,0,0,0-5.09,1.65l-.85.79Z"/><path class="cls-2" d="M638.37,18.87h4.69a6.62,6.62,0,0,0,5-1.67,6.13,6.13,0,0,0,1.61-4.45A5.46,5.46,0,0,0,648,8.58a6.24,6.24,0,0,0-4.4-1.49,6.43,6.43,0,0,0-4.23,1.39,4.41,4.41,0,0,0-1.71,3.6h-8.79a10.8,10.8,0,0,1,1.87-6.22A12.5,12.5,0,0,1,636,1.55,17.61,17.61,0,0,1,643.43,0q7,0,11,3.36a11.48,11.48,0,0,1,4,9.27,9.3,9.3,0,0,1-1.86,5.6,12,12,0,0,1-4.87,3.93,11,11,0,0,1,5.59,4,10.91,10.91,0,0,1,1.84,6.34A11.66,11.66,0,0,1,654.82,42q-4.3,3.57-11.39,3.56-6.64,0-10.86-3.5a11.42,11.42,0,0,1-4.21-9.25h8.8A5.1,5.1,0,0,0,639,36.86a7.8,7.8,0,0,0,9.52-.08,5.71,5.71,0,0,0,1.78-4.4q0-6.63-7.3-6.63h-4.66Z"/><path class="cls-2" d="M695.56,44.92H665.19v-6l14.33-15.28A35.18,35.18,0,0,0,683.89,18a9.13,9.13,0,0,0,1.42-4.57,6.74,6.74,0,0,0-1.5-4.64,5.36,5.36,0,0,0-4.26-1.69,5.81,5.81,0,0,0-4.7,2.06,8.12,8.12,0,0,0-1.72,5.4H664.3a14.52,14.52,0,0,1,1.94-7.4A13.67,13.67,0,0,1,671.7,1.9a16.56,16.56,0,0,1,8-1.9q6.85,0,10.64,3.29t3.79,9.28a15,15,0,0,1-1.7,6.7,37.36,37.36,0,0,1-5.85,7.94L676.51,37.83h19Z"/><path class="cls-2" d="M727,28.25h5v7.09h-5v9.58h-8.79V35.34H700l-.4-5.54L718.09.61H727Zm-18.59,0h9.8V12.6l-.58,1Z"/></g><g class="cls-1"><path class="cls-2" d="M877.94,18.87h4.69a6.63,6.63,0,0,0,5-1.67,6.17,6.17,0,0,0,1.61-4.45,5.43,5.43,0,0,0-1.6-4.17,6.2,6.2,0,0,0-4.4-1.49A6.47,6.47,0,0,0,879,8.48a4.43,4.43,0,0,0-1.7,3.6h-8.8a10.88,10.88,0,0,1,1.87-6.22,12.53,12.53,0,0,1,5.24-4.31A17.53,17.53,0,0,1,883,0q7,0,11,3.36a11.48,11.48,0,0,1,4,9.27,9.3,9.3,0,0,1-1.86,5.6,12.09,12.09,0,0,1-4.87,3.93,11,11,0,0,1,5.58,4,10.91,10.91,0,0,1,1.85,6.34A11.66,11.66,0,0,1,894.39,42q-4.3,3.57-11.4,3.56A16.39,16.39,0,0,1,872.14,42a11.43,11.43,0,0,1-4.22-9.25h8.8a5.1,5.1,0,0,0,1.87,4.08,7.82,7.82,0,0,0,9.53-.08,5.71,5.71,0,0,0,1.78-4.4q0-6.63-7.31-6.63h-4.65Z"/><path class="cls-2" d="M913.7,18.87h4.69a6.63,6.63,0,0,0,5-1.67A6.17,6.17,0,0,0,925,12.75a5.43,5.43,0,0,0-1.6-4.17A6.19,6.19,0,0,0,919,7.09a6.43,6.43,0,0,0-4.23,1.39,4.41,4.41,0,0,0-1.71,3.6h-8.8a10.81,10.81,0,0,1,1.88-6.22,12.44,12.44,0,0,1,5.23-4.31A17.53,17.53,0,0,1,918.75,0q7,0,11,3.36a11.48,11.48,0,0,1,4,9.27,9.3,9.3,0,0,1-1.86,5.6A12.09,12.09,0,0,1,927,22.16a11,11,0,0,1,5.59,4,11,11,0,0,1,1.84,6.34A11.66,11.66,0,0,1,930.15,42q-4.3,3.57-11.4,3.56A16.39,16.39,0,0,1,907.9,42a11.42,11.42,0,0,1-4.21-9.25h8.79a5.13,5.13,0,0,0,1.87,4.08,7.82,7.82,0,0,0,9.53-.08,5.71,5.71,0,0,0,1.78-4.4q0-6.63-7.3-6.63H913.7Z"/><path class="cls-2" d="M949.46,18.87h4.69a6.62,6.62,0,0,0,5-1.67,6.13,6.13,0,0,0,1.61-4.45,5.46,5.46,0,0,0-1.59-4.17,6.22,6.22,0,0,0-4.4-1.49,6.43,6.43,0,0,0-4.23,1.39,4.41,4.41,0,0,0-1.71,3.6H940a10.8,10.8,0,0,1,1.87-6.22,12.5,12.5,0,0,1,5.23-4.31A17.61,17.61,0,0,1,954.52,0c4.68,0,8.36,1.12,11,3.36a11.48,11.48,0,0,1,4,9.27,9.3,9.3,0,0,1-1.86,5.6,12,12,0,0,1-4.87,3.93,11,11,0,0,1,5.59,4,10.91,10.91,0,0,1,1.84,6.34A11.66,11.66,0,0,1,965.91,42q-4.3,3.57-11.39,3.56-6.64,0-10.85-3.5a11.4,11.4,0,0,1-4.22-9.25h8.8a5.1,5.1,0,0,0,1.87,4.08,7.8,7.8,0,0,0,9.52-.08,5.71,5.71,0,0,0,1.78-4.4q0-6.63-7.3-6.63h-4.66Z"/><path class="cls-2" d="M997.64,44.92h-8.79V11l-10.5,3.25V7.12L996.7.55h.94Z"/></g><g class="cls-1"><path class="cls-2" d="M1171.18,44.92h-8.79V11l-10.5,3.25V7.12L1170.24.55h.94Z"/><path class="cls-2" d="M1207,44.92h-8.8V11l-10.5,3.25V7.12L1206,.55h1Z"/><path class="cls-2" d="M1242.71,44.92h-8.8V11l-10.5,3.25V7.12L1241.77.55h.94Z"/><path class="cls-2" d="M1266.06,18.87h4.68a6.62,6.62,0,0,0,5-1.67,6.14,6.14,0,0,0,1.62-4.45,5.46,5.46,0,0,0-1.6-4.17,6.22,6.22,0,0,0-4.4-1.49,6.47,6.47,0,0,0-4.23,1.39,4.4,4.4,0,0,0-1.7,3.6h-8.8a10.8,10.8,0,0,1,1.87-6.22,12.47,12.47,0,0,1,5.24-4.31A17.53,17.53,0,0,1,1271.11,0q7,0,11,3.36a11.5,11.5,0,0,1,4,9.27,9.36,9.36,0,0,1-1.85,5.6,12.09,12.09,0,0,1-4.87,3.93,11,11,0,0,1,5.58,4,10.91,10.91,0,0,1,1.84,6.34,11.66,11.66,0,0,1-4.3,9.46q-4.32,3.57-11.4,3.56-6.64,0-10.85-3.5a11.43,11.43,0,0,1-4.22-9.25h8.8a5.1,5.1,0,0,0,1.87,4.08,7.82,7.82,0,0,0,9.53-.08,5.74,5.74,0,0,0,1.78-4.4q0-6.63-7.31-6.63h-4.65Z"/></g></svg>