<svg id="Layer_1" data-name="Layer 1" xmlns="http://www.w3.org/2000/svg" viewBox="0 0 50 50"><defs><style>.cls-1{fill:#76c48d;}</style></defs><polygon class="cls-1" points="33.98 31.61 24.89 19.68 16.02 31.33 14.04 28.72 24.89 14.47 35.96 29 33.98 31.61"/><path class="cls-1" d="M.49,25A24.51,24.51,0,1,1,25,49.51,24.54,24.54,0,0,1,.49,25Zm48,0A23.45,23.45,0,1,0,25,48.45,23.48,23.48,0,0,0,48.45,25Z"/><path class="cls-1" d="M50,25A25,25,0,1,1,25,0,25,25,0,0,1,50,25ZM1,25A24,24,0,1,0,25,1,24.05,24.05,0,0,0,1,25Zm48,0A23.94,23.94,0,1,1,25,1.06,24,24,0,0,1,48.94,25ZM2,25A23,23,0,1,0,25,2,23,23,0,0,0,2,25Z"/></svg>