<svg id="Layer_1" data-name="Layer 1" xmlns="http://www.w3.org/2000/svg" viewBox="0 0 43.77 47.01"><defs><style>.cls-1{fill:#76c48d;}.cls-2{opacity:0.5;}.cls-3{opacity:0.47;}</style></defs><path class="cls-1" d="M37.92,36.92h2.13c.17-.26.34-.52.5-.79H37.92V30h5.15a21.72,21.72,0,0,0,.55-3.76h-5.9v-8.5h4.7a20.74,20.74,0,0,0-1.14-2.65v1.26H37v2.77H34.16V16.34h1.39V10.6h2.68a21.7,21.7,0,0,0-2.88-2.71V9.61H29.61v-5c-.71-.26-1.44-.5-2.18-.69V6.05H21.69V3.29H21.3V6.65h3.36V10H21.3V8.4H16.15V4.08q-1.2.34-2.37.81V10.8H5.67v-.1c-.2.23-.39.46-.58.7H7.65v4h-4v-2a21.68,21.68,0,0,0-1.87,3.73H5.07v5.74H.43A20.69,20.69,0,0,0,.33,25,22.51,22.51,0,0,0,.54,28H6.66v7.32H9.82V39H7.45v2l.53.4V39.29h5.8V45l.2.08v-.84h6.53v2.32H21V45h3.27V46.5l1-.13V43.45H30v1.63c.34-.13.67-.27,1-.42V41.27h5.25a20,20,0,0,0,1.68-1.64Zm-32.25-21h4v4h-4ZM11.41,27.4H5.67V21.68h5.74Zm1.18-12H8.64v-4h3.95ZM17,44H14V41h3Zm6.33-.1H20V40.68h3.3Zm4-27.6H21.5V10.6h5.73Z"/><g class="cls-2"><rect class="cls-1" x="15.34" y="2.7" width="4.69" height="4.69"/><rect class="cls-1" x="5.77" y="2.16" width="7.4" height="7.4"/><rect class="cls-1" x="8.48" y="10.1" width="3.61" height="3.61"/><rect class="cls-1" x="3.97" y="10.1" width="3.61" height="3.61"/><rect class="cls-1" x="5.77" y="14.25" width="3.61" height="3.61"/><rect class="cls-1" y="15.34" width="5.23" height="5.23"/><rect class="cls-1" x="5.77" y="19.49" width="5.23" height="5.23"/><rect class="cls-1" y="25.26" width="6.68" height="6.68"/><rect class="cls-1" x="6.23" y="31.94" width="3.34" height="3.34"/><rect class="cls-1" x="4.06" y="35.19" width="3.34" height="3.34"/><rect class="cls-1" x="7.85" y="35.55" width="5.32" height="5.32"/><rect class="cls-1" x="13.35" y="37.17" width="2.71" height="2.71"/><rect class="cls-1" x="13.35" y="40.06" width="5.95" height="5.95"/><rect class="cls-1" x="18.86" y="36.81" width="2.98" height="2.98"/><rect class="cls-1" x="19.76" y="40.78" width="2.98" height="2.98"/><rect class="cls-1" x="23.64" y="39.34" width="4.33" height="4.33"/><rect class="cls-1" x="20.03" y="5.77" width="3.07" height="3.07"/><rect class="cls-1" x="20.39" width="5.23" height="5.23"/><rect class="cls-1" x="20.21" y="9.38" width="5.23" height="5.23"/><rect class="cls-1" x="33.02" y="9.38" width="5.23" height="5.23"/><rect class="cls-1" x="27.61" y="3.25" width="5.23" height="5.23"/><rect class="cls-1" x="31.76" y="14.61" width="2.53" height="2.53"/><rect class="cls-1" x="35.01" y="15.88" width="7.76" height="7.76"/><rect class="cls-1" x="35.19" y="27.07" width="5.59" height="5.59"/><rect class="cls-1" x="35.19" y="33.38" width="3.97" height="3.97"/><rect class="cls-1" x="28.87" y="37.35" width="5.41" height="5.41"/><path class="cls-1" d="M5.81,36.57h.68V33.32H3.58A19.5,19.5,0,0,0,5.81,36.57Z"/><path class="cls-1" d="M6.45,35.19h.68V31.94H4.22A19.5,19.5,0,0,0,6.45,35.19Z"/></g><g class="cls-3"><rect class="cls-1" x="16.34" y="3.7" width="4.69" height="4.69"/><rect class="cls-1" x="6.77" y="3.16" width="7.4" height="7.4"/><rect class="cls-1" x="9.48" y="11.1" width="3.61" height="3.61"/><rect class="cls-1" x="4.97" y="11.1" width="3.61" height="3.61"/><rect class="cls-1" x="6.77" y="15.25" width="3.61" height="3.61"/><rect class="cls-1" x="1" y="16.34" width="5.23" height="5.23"/><rect class="cls-1" x="6.77" y="20.49" width="5.23" height="5.23"/><rect class="cls-1" x="1" y="26.26" width="6.68" height="6.68"/><rect class="cls-1" x="7.23" y="32.94" width="3.34" height="3.34"/><rect class="cls-1" x="5.06" y="36.19" width="3.34" height="3.34"/><rect class="cls-1" x="8.85" y="36.55" width="5.32" height="5.32"/><rect class="cls-1" x="14.35" y="38.17" width="2.71" height="2.71"/><rect class="cls-1" x="14.35" y="41.06" width="5.95" height="5.95"/><rect class="cls-1" x="19.86" y="37.81" width="2.98" height="2.98"/><rect class="cls-1" x="20.76" y="41.78" width="2.98" height="2.98"/><rect class="cls-1" x="24.64" y="40.34" width="4.33" height="4.33"/><rect class="cls-1" x="21.03" y="6.77" width="3.07" height="3.07"/><rect class="cls-1" x="21.39" y="1" width="5.23" height="5.23"/><rect class="cls-1" x="21.21" y="10.38" width="5.23" height="5.23"/><rect class="cls-1" x="34.02" y="10.38" width="5.23" height="5.23"/><rect class="cls-1" x="28.61" y="4.25" width="5.23" height="5.23"/><rect class="cls-1" x="32.76" y="15.61" width="2.53" height="2.53"/><rect class="cls-1" x="36.01" y="16.88" width="7.76" height="7.76"/><rect class="cls-1" x="36.19" y="28.07" width="5.59" height="5.59"/><rect class="cls-1" x="36.19" y="34.38" width="3.97" height="3.97"/><rect class="cls-1" x="29.87" y="38.35" width="5.41" height="5.41"/><path class="cls-1" d="M6.81,37.57h.68V34.32H4.58A19.5,19.5,0,0,0,6.81,37.57Z"/><path class="cls-1" d="M7.45,36.19h.68V32.94H5.22A19.5,19.5,0,0,0,7.45,36.19Z"/></g><path d="M29.78,13.4H14.72a2.48,2.48,0,0,0-2.47,2.47V30.93a2.48,2.48,0,0,0,2.47,2.47H29.78a2.48,2.48,0,0,0,2.47-2.47V15.87A2.48,2.48,0,0,0,29.78,13.4ZM27.87,26.81a.67.67,0,0,1-.45.25H25.69a1.24,1.24,0,0,1-.67-.24,4.15,4.15,0,0,1-.69-.7c-.34-.39-.63-.72-.92-.72a.22.22,0,0,0-.11,0c-.22.07-.5.38-.5,1.22a.4.4,0,0,1-.35.42h-.8a4.3,4.3,0,0,1-2.92-1.41,20.45,20.45,0,0,1-2.91-4.86c-.08-.21.1-.32.29-.32h1.75a.36.36,0,0,1,.36.27,11,11,0,0,0,.67,1.38c.6,1.06,1,1.5,1.27,1.5a.27.27,0,0,0,.16,0c.39-.22.32-1.61.3-1.89a1.87,1.87,0,0,0-.2-.9.84.84,0,0,0-.53-.3.74.74,0,0,1,.23-.2,3.3,3.3,0,0,1,1.23-.15h.26a3,3,0,0,1,.85.09c.38.09.38.33.35,1.17,0,.24,0,.51,0,.83v.22c0,.43,0,.91.28,1.11a.2.2,0,0,0,.13,0c.1,0,.42,0,1.27-1.47a11.37,11.37,0,0,0,.68-1.46.4.4,0,0,1,.13-.16.32.32,0,0,1,.14,0h2.06c.22,0,.37,0,.4.12s0,.55-.95,1.82c-.15.21-.3.39-.41.55-.85,1.12-.85,1.17.05,2a11.28,11.28,0,0,1,1.22,1.41s0,0,0,0C27.9,26.59,27.92,26.72,27.87,26.81Z"/></svg>